<svg
 xmlns="http://www.w3.org/2000/svg"
 xmlns:xlink="http://www.w3.org/1999/xlink"
 width="37px" height="30px">
<path fill-rule="evenodd"  fill="rgb(255, 255, 255)"
 d="M32.336,30.000 L5.656,30.000 C3.944,30.000 2.424,29.132 1.591,27.679 C0.757,26.225 0.797,24.512 1.697,23.097 L15.037,2.145 L15.036,2.145 C15.891,0.802 17.371,-0.000 18.996,-0.000 C20.621,-0.000 22.101,0.802 22.955,2.145 L36.295,23.096 C37.195,24.512 37.235,26.225 36.401,27.679 C35.568,29.132 34.048,30.000 32.336,30.000 ZM18.996,2.734 C18.343,2.734 17.772,3.043 17.429,3.583 L17.428,3.584 L4.089,24.535 C3.733,25.095 3.717,25.773 4.047,26.348 C4.377,26.923 4.979,27.267 5.656,27.267 L32.336,27.267 C33.013,27.267 33.615,26.923 33.945,26.348 C34.275,25.773 34.259,25.095 33.903,24.534 L20.564,3.584 C20.220,3.043 19.649,2.734 18.996,2.734 ZM20.402,22.141 L17.590,22.141 L17.590,24.874 L20.402,24.874 L20.402,22.141 ZM20.402,8.679 L17.590,8.679 L17.590,19.408 L20.402,19.408 L20.402,8.679 Z"/>
</svg>
