<svg xmlns="http://www.w3.org/2000/svg" width="60" height="40" viewBox="0 0 60 40"><path d="M60,35a5.015,5.015,0,0,1-5,5H5a5.015,5.015,0,0,1-5-5V5A5.015,5.015,0,0,1,5,0H55a5.015,5.015,0,0,1,5,5Z" fill="#239bd5" fill-rule="evenodd"/><path d="M55,0H5A5.081,5.081,0,0,0,0,5V35a5.015,5.015,0,0,0,5,5H55a5.015,5.015,0,0,0,5-5V5a5.015,5.015,0,0,0-5-5Zm0,1a4.012,4.012,0,0,1,4,4V35a4.012,4.012,0,0,1-4,4H5a4.012,4.012,0,0,1-4-4V5A4.012,4.012,0,0,1,5,1Z" fill="#fff" fill-rule="evenodd"/><path d="M4.4,18.6H5.8l.6,1.5h5.5V19l.5,1.1h2.9l.5-1.2v1.2H29.4V17.6h.3c.2,0,.3,0,.3.3v2.2h7v-.6a5.521,5.521,0,0,0,2.6.6h3l.6-1.5h1.4l.6,1.5H51V18.7l.9,1.4h4.6V10.6H52v1.1l-.7-1.1H46.7v1.1L46,10.5H39.7A5.439,5.439,0,0,0,37,11v-.5H32.6V11a2.851,2.851,0,0,0-1.9-.5H14.8L13.7,13l-1.1-2.4h-5v1.1L7,10.6H2.9L1,14.9v3.7L3.8,12H6.2l2.9,6.4V11.9h2.7L14,16.5l2-4.6h2.7v6.8H17V13.3l-2.4,5.4H13l-2.4-5.4v5.4H7.4l-.6-1.5H3.4l-.7,1.5H1V20H3.8Zm32.8-6a3.394,3.394,0,0,1,2.5-.8h1.6v1.4H39.8a1.844,1.844,0,0,0-1.3.4,2.348,2.348,0,0,0-.5,1.6,2.544,2.544,0,0,0,.5,1.6,1.5,1.5,0,0,0,1.1.4h.7l2.3-5.4h2.5l2.8,6.5V11.8h2.5l2.9,4.8V11.8h1.6v6.8H52.6l-3.1-5.1v5.1H46.2l-.7-1.5H42.1l-.6,1.5H39.6a3.492,3.492,0,0,1-2.4-.8,3.273,3.273,0,0,1-.9-2.6,3.761,3.761,0,0,1,.9-2.6Zm-3.4-.7h1.6v6.8H33.8Zm-7.4,0h3.8a4.226,4.226,0,0,1,2,.3,1.645,1.645,0,0,1,.8,1.5,1.921,1.921,0,0,1-1.1,1.8,1.828,1.828,0,0,1,.8.6c.3.3.3.6.3,1.2v1.3H31.4v-.9a1.943,1.943,0,0,0-.3-1.3,1.737,1.737,0,0,0-1.2-.3H28v2.5H26.4Zm-6.6,0h5.5v1.4H21.5v1.2h3.7v1.4H21.5v1.3h3.8v1.4H19.8ZM15.6,25.1v1.2h3.6v1.4H15.6V29h4l1.9-2-1.8-2H15.6Zm10.5,4.7V24.3L23.6,27Zm4.6-15.1a.755.755,0,0,0,.4-.7.548.548,0,0,0-.4-.6,1.949,1.949,0,0,0-.8-.1h-2v1.5h2a1.949,1.949,0,0,0,.8-.1ZM5.1,13.1,4,15.8H6.2Zm38.7,0-1.1,2.7h2.2Zm-13.9,12H27.7v1.7h2.2c.6,0,1-.3,1-.9a1.021,1.021,0,0,0-1-.8ZM59,31.3a6.175,6.175,0,0,1-2.5.5H52.3v-.6a4.753,4.753,0,0,1-2.2.6H36.8V29.5c0-.3,0-.3-.3-.3h-.2v2.5H31.9V29.1a6.562,6.562,0,0,1-2.3.4H29v2.3H23.7l-1.3-1.5L21,31.8H12.3V22.3h8.8l1.3,1.4,1.3-1.4h5.9a3.574,3.574,0,0,1,2.3.5v-.5h5.3a5.325,5.325,0,0,1,2.3.5v-.5h8v.5a4.228,4.228,0,0,1,2-.5H54v.5a4.064,4.064,0,0,1,2.1-.5h3v1.3H55.9c-1.8,0-2.4,1.1-2.4,2.1,0,2.2,2,2,3.5,2.1a1.072,1.072,0,0,1,.6.2.764.764,0,0,1,.2.5.52.52,0,0,1-.2.4,1.445,1.445,0,0,1-.7.2H53.8v1.4h3.1a2.531,2.531,0,0,0,2.2-.9v1.7ZM59,27l-.1-.1a3.052,3.052,0,0,0-1.9-.6h-.9a1.268,1.268,0,0,1-.6-.1.458.458,0,0,1-.4-.5c0-.2,0-.4.2-.5a1.483,1.483,0,0,1,.7-.1h3ZM29.8,28.2H27.7v2.3H24.5l-2-2.3-2.1,2.3H13.9V23.7h6.6l2,2.3,2.1-2.3h5.3c1.3,0,2.7.4,2.7,2.3-.1,1.7-1.5,2.2-2.8,2.2Zm9.8-.4a1.922,1.922,0,0,1,.3,1.2v1.3H38.3v-.9c0-.4.1-1-.3-1.3-.3-.3-.6-.3-1.2-.3H34.9v2.5H33.3V23.5h3.8a6.014,6.014,0,0,1,2,.3,1.725,1.725,0,0,1,.9,1.5,1.975,1.975,0,0,1-1.2,1.8c.3.3.6.5.8.7Zm6.7-2.7H42.4v1.2h3.8v1.4H42.4V29h3.9v1.4H40.8V23.6h5.5Zm4.1,5.3H47.2V29h3.1a1.445,1.445,0,0,0,.7-.2.52.52,0,0,0,.2-.4.764.764,0,0,0-.2-.5.845.845,0,0,0-.6-.2c-1.4-.1-3.4.1-3.4-2a2.047,2.047,0,0,1,2.3-2.1h3.3v1.5h-3a1.483,1.483,0,0,0-.7.1.55.55,0,0,0-.3.5.458.458,0,0,0,.4.5,1.483,1.483,0,0,0,.7.1h.9a3.052,3.052,0,0,1,1.9.6,2.168,2.168,0,0,1,.5,1.4c-.1,1.4-1,2.1-2.6,2.1ZM37.7,25.2a1.949,1.949,0,0,0-.8-.1h-2v1.5h2a1.949,1.949,0,0,0,.8-.1.908.908,0,0,0,.3-.7c0-.3,0-.5-.3-.6Z" fill="#fff" fill-rule="evenodd"/></svg>