<svg 
 xmlns="http://www.w3.org/2000/svg"
 xmlns:xlink="http://www.w3.org/1999/xlink"
 width="39px" height="30px">
<path fill-rule="evenodd"  fill="rgb(147, 147, 147)"
 d="M-0.007,19.573 C-0.007,26.213 4.352,29.992 9.183,29.992 C13.543,29.992 17.195,26.442 17.195,22.092 C17.195,17.855 14.132,14.879 10.126,14.879 C9.419,14.879 8.476,15.108 8.123,15.222 C8.947,11.329 12.836,6.635 16.606,4.460 L11.068,-0.006 C4.588,4.460 -0.007,11.672 -0.007,19.573 ZM21.790,19.573 C21.790,26.213 26.150,29.992 30.981,29.992 C35.340,29.992 38.993,26.442 38.993,22.092 C38.993,17.855 35.929,14.879 31.923,14.879 C31.216,14.879 30.274,15.108 29.920,15.222 C30.745,11.329 34.633,6.635 38.404,4.460 L32.866,-0.006 C26.386,4.460 21.790,11.672 21.790,19.573 Z"/>
</svg>