<?xml version="1.0" standalone="no"?>
<!DOCTYPE svg PUBLIC "-//W3C//DTD SVG 20010904//EN"
 "http://www.w3.org/TR/2001/REC-SVG-20010904/DTD/svg10.dtd">
<svg version="1.0" xmlns="http://www.w3.org/2000/svg"
 width="39" height="39" viewBox="0 0 64.000000 64.000000"
 preserveAspectRatio="xMidYMid meet">
    <g transform="translate(0.000000,64.000000) scale(0.100000,-0.100000)"
    fill="#FB6565" stroke="none">
    <path d="M269 629 c-201 -31 -318 -250 -234 -437 110 -246 460 -246 570 0 71
    157 1 343 -154 411 -65 29 -118 36 -182 26z m157 -68 c52 -24 111 -83 135
    -135 25 -55 25 -157 0 -212 -10 -23 -36 -58 -56 -79 -21 -20 -56 -46 -79 -56
    -55 -25 -157 -25 -212 0 -52 24 -111 83 -135 135 -25 55 -25 157 0 212 24 52
    83 111 135 135 55 25 157 25 212 0z"/>
    <path d="M286 474 c-8 -20 -8 -168 0 -188 8 -21 60 -21 68 0 8 20 8 168 0 188
    -4 9 -18 16 -34 16 -16 0 -30 -7 -34 -16z"/>
    <path d="M290 180 c0 -27 3 -30 30 -30 27 0 30 3 30 30 0 27 -3 30 -30 30 -27
    0 -30 -3 -30 -30z"/>
    </g>
</svg>
