<svg 
 xmlns="http://www.w3.org/2000/svg"
 xmlns:xlink="http://www.w3.org/1999/xlink"
 width="31px" height="24px">
<path fill-rule="evenodd"  fill="rgb(255, 255, 255)"
 d="M30.926,7.798 L28.717,16.827 C28.400,18.119 27.092,19.133 25.737,19.133 L11.325,19.133 C9.968,19.133 8.670,18.164 8.307,16.882 L4.344,2.902 C4.280,2.674 3.946,2.425 3.706,2.425 L1.029,2.425 C0.461,2.425 -0.000,1.974 -0.000,1.416 L-0.000,1.011 C-0.000,0.453 0.461,0.000 1.029,0.000 L3.706,0.000 C5.063,0.000 6.360,0.968 6.724,2.251 L7.482,4.927 L28.620,4.927 C29.379,4.927 30.067,5.243 30.509,5.793 C30.951,6.341 31.103,7.074 30.926,7.798 ZM8.170,7.351 L10.687,16.230 C10.751,16.459 11.085,16.706 11.325,16.706 L25.737,16.706 C25.960,16.706 26.262,16.474 26.314,16.259 L28.494,7.351 L8.170,7.351 ZM11.385,19.673 C12.602,19.673 13.589,20.639 13.589,21.835 C13.589,23.030 12.602,23.999 11.385,23.999 C10.167,23.999 9.181,23.030 9.181,21.835 C9.181,20.639 10.167,19.673 11.385,19.673 ZM24.409,19.673 C25.627,19.673 26.614,20.639 26.614,21.835 C26.614,23.030 25.627,23.999 24.409,23.999 C23.192,23.999 22.205,23.030 22.205,21.835 C22.205,20.639 23.192,19.673 24.409,19.673 Z"/>
</svg>