<svg xmlns="http://www.w3.org/2000/svg" width="168.32" height="133.068" viewBox="0 0 168.32 133.068">
  <g id="_10" data-name="10" transform="translate(-0.679 -0.793)">
    <path id="Caminho_1" data-name="Caminho 1" d="M99.285,133.86C135.731,134.037,169,104.2,169,67.9,169,28.215,135.731.782,99.285.793H67.92C31.037.782.679,28.222.679,67.9c0,36.3,30.358,66.133,67.241,65.956H99.285" fill="#006095"/>
    <path id="Caminho_2" data-name="Caminho 2" d="M81.909,103.247V31.175a38.555,38.555,0,0,1,0,72.072M29.388,67.209A38.677,38.677,0,0,1,54.219,31.177v72.055A38.656,38.656,0,0,1,29.388,67.209M68.066,6.294A60.91,60.91,0,1,0,129.1,67.209,60.979,60.979,0,0,0,68.066,6.294" fill="#fff"/>
  </g>
</svg>
