<svg xmlns="http://www.w3.org/2000/svg" width="50" height="50" viewBox="0 0 30 30"><g transform="translate(-26 -6)"><circle cx="15" cy="15" r="15" transform="translate(26 6)"/><g transform="translate(1.092 0.812)"><path d="M39.961,14.188v9.158l1.589.659L40.8,25.811l-1.572-.653a1.786,1.786,0,0,1-.774-.65,2.051,2.051,0,0,1-.3-1.136V14.189Zm-7.24,2.138a4.744,4.744,0,0,0-4.046,7.331l8.59-3.672A4.742,4.742,0,0,0,32.721,16.326Zm-2.846,5.036a2.488,2.488,0,0,1-.017-.336,2.792,2.792,0,0,1,4.924-1.759Zm4.726,1.7a2.774,2.774,0,0,1-3.437.366l-1.038,1.654a4.735,4.735,0,0,0,5.837-.621Z" fill="#fff"/><g transform="translate(32.94 3.97)"><path d="M18.373,20.918a2.828,2.828,0,0,1-3.665,2.113l-.628,1.875a4.806,4.806,0,0,0,6.229-3.591Z" transform="translate(-2.027 -3.321)" fill="#ed412f"/><path d="M10.4,21.372l1.31-1.481a2.824,2.824,0,0,1,0-4.231L10.4,14.18a4.8,4.8,0,0,0,0,7.192" transform="translate(0 -0.746)" fill="#1aa5df"/><path d="M14.71,14.35a2.828,2.828,0,0,1,3.665,2.116l1.937-.395a4.807,4.807,0,0,0-6.229-3.6Z" transform="translate(-2.028)" fill="#ffca32"/></g></g></g></svg>