<svg
 xmlns="http://www.w3.org/2000/svg"
 xmlns:xlink="http://www.w3.org/1999/xlink"
 width="31px" height="21px">
<path fill-rule="evenodd"  fill="rgb(220, 213, 213)"
 d="M30.553,9.496 L21.335,0.413 C20.773,-0.142 19.861,-0.142 19.299,0.413 C18.736,0.966 18.736,1.865 19.299,2.420 L26.057,9.079 L1.440,9.079 C0.645,9.079 -0.000,9.714 -0.000,10.498 C-0.000,11.282 0.645,11.917 1.440,11.917 L26.057,11.917 L19.299,18.578 C18.736,19.131 18.736,20.030 19.299,20.585 C19.580,20.862 19.948,20.999 20.317,20.999 C20.685,20.999 21.055,20.862 21.335,20.585 L30.553,11.502 C31.115,10.947 31.115,10.049 30.553,9.496 L30.553,9.496 Z"/>
</svg>
