<svg
 xmlns="http://www.w3.org/2000/svg"
 xmlns:xlink="http://www.w3.org/1999/xlink"
 width="31px" height="21px">
<path fill-rule="evenodd"  fill="#ded8d8"
 d="M0.447,9.496 L9.665,0.413 C10.227,-0.142 11.139,-0.142 11.701,0.413 C12.264,0.966 12.264,1.865 11.701,2.420 L4.943,9.079 L29.560,9.079 C30.355,9.079 31.000,9.714 31.000,10.498 C31.000,11.282 30.355,11.917 29.560,11.917 L4.943,11.917 L11.701,18.578 C12.264,19.131 12.264,20.030 11.701,20.585 C11.420,20.862 11.052,20.999 10.683,20.999 C10.315,20.999 9.945,20.862 9.665,20.585 L0.447,11.502 C-0.115,10.947 -0.115,10.049 0.447,9.496 L0.447,9.496 Z"/>
</svg>
