<svg xmlns="http://www.w3.org/2000/svg" width="48.166" height="20.967" viewBox="0 0 48.166 20.967"><g transform="translate(-5.917 -9.517)"><path d="M26.037,30.477l-20.12.007v-.048c0-.027.032-.2.071-.384s.1-.478.135-.652.1-.47.134-.657.1-.5.142-.694.1-.5.138-.682.1-.477.135-.657.1-.493.143-.694.1-.508.138-.682.091-.443.124-.6.075-.362.094-.463.078-.4.133-.658.115-.557.134-.657.08-.4.134-.658.115-.557.134-.657.079-.4.135-.657.115-.552.133-.645.066-.335.107-.536.12-.579.174-.84.147-.716.207-1.011.13-.645.157-.779.077-.375.11-.536L8.862,16l.146-.706c.04-.194.1-.5.136-.67s.1-.464.133-.645.1-.5.146-.706.113-.525.157-.706.106-.4.139-.487a4.415,4.415,0,0,1,.2-.419l.139-.261.126-.165c.069-.091.193-.234.275-.319s.22-.212.307-.283.213-.167.28-.213.2-.127.292-.179.225-.121.292-.153.2-.089.3-.128.292-.1.426-.145.385-.1.559-.136.447-.08.609-.1l.294-.039,20.132-.008,20.132-.008v.048c0,.027-.032.2-.072.384s-.1.5-.147.7-.1.491-.133.645l-.136.658c-.042.208-.108.525-.145.706s-.1.477-.134.658-.1.477-.135.657-.1.466-.13.633l-.136.67c-.041.2-.107.519-.146.706s-.1.478-.134.645l-.136.67c-.041.2-.106.519-.146.706s-.1.472-.131.633-.093.462-.136.67-.1.509-.136.67-.092.446-.131.633-.106.511-.148.718-.1.5-.135.657-.091.444-.132.645-.106.519-.145.706-.1.483-.135.657-.1.475-.137.67l-.145.706c-.04.194-.1.485-.132.645s-.093.457-.134.658-.107.517-.148.7l-.073.338-.087.234c-.048.129-.12.3-.16.38s-.122.222-.182.315-.143.212-.186.265-.169.188-.282.3l-.205.206-.2.14c-.109.077-.226.156-.26.175s-.165.086-.291.149-.3.143-.394.178-.272.094-.4.132-.269.075-.309.083l-.31.064c-.13.028-.393.069-.584.092l-.348.041Z" fill="#b7232c"/><path d="M17.068,16.1l.077-.33H15.677L15.645,16c-.008.063-.038.239-.063.392l-.011.062c-.028.157-.068.388-.1.547-.032.181-.092.527-.132.769s-.091.562-.113.711l-.025.166-1.655.034-.739-.018-.6-.017c0-.021.007-.045.012-.069.02-.112.056-.308.082-.434s.075-.381.109-.562.073-.41.087-.506.039-.243.059-.338.061-.305.087-.459.05-.268.057-.293l.081-.209H11.3l-.057.315c-.021.119-.049.287-.062.376s-.058.365-.1.619l-.269,1.681c-.041.254-.107.647-.148.874s-.1.55-.133.717l-.134.706c-.042.222-.1.532-.136.692s-.07.35-.082.418-.049.258-.083.426c-.024.12-.065.329-.065.372v.164h1.415l.294-1.784c.042-.248.1-.614.138-.815s.089-.512.121-.691c.021-.117.039-.206.047-.252h2.988l-.005.027c-.015.078-.061.316-.1.531l-.148.8c-.042.227-.1.55-.134.718s-.1.519-.145.78c-.026.146-.088.488-.088.527l0,.155h1.417l.044-.256c.015-.084.038-.237.053-.338s.047-.312.074-.472l.121-.706c.039-.229.1-.617.146-.865s.1-.609.135-.8.093-.521.132-.729l.418-2.277C16.994,16.459,17.046,16.2,17.068,16.1Z" fill="#f5f5f5"/><path d="M18.458,19.9l.133-.694c.034-.181.1-.523.148-.763s.086-.412.1-.438l.118-.193-1.393.017-.059.423c-.024.175-.077.518-.118.765l-.136.841c-.034.214-.094.557-.133.764l-.133.706c-.034.181-.095.5-.135.7s-.095.48-.121.607-.052.249-.06.279l-.057.212h1.3l.045-.118a.6.6,0,0,0,.023-.169c0-.032.026-.235.072-.52.041-.25.107-.657.148-.9s.1-.609.134-.8S18.419,20.1,18.458,19.9Z" fill="#f5f5f5"/><path d="M18.125,17.177l.369.013.255-.086L19,16.863l.138-.326.012-.492-.116-.192-.241-.165h-.4l-.3.122-.185.184-.138.3-.033.493.141.276Z" fill="#f5f5f5"/><path d="M22.671,19.453l-.021.883-.062.274c-.032.142-.1.365-.142.5l-.075.221-.1.193a3.22,3.22,0,0,1-.183.3A1.222,1.222,0,0,1,21.93,22c-.045.039-.121.1-.167.134l-.074.055-.378.129-.361.025L20.7,22.3l-.236-.107-.156-.149-.044-.1a1.78,1.78,0,0,1-.078-.23L20.16,21.6l.021-.385.063-.329c.035-.181.1-.521.138-.757s.1-.577.139-.761l.055-.294.1-.087a2.08,2.08,0,0,1,.252-.178l.1-.063.312-.1.42-.025.314.063.232.107.182.182.048.1a1.459,1.459,0,0,1,.088.242Zm1.2-.7-.165-.329-.339-.366-.438-.229-.434-.1-.438-.029-.478.057-.4.1-.164.075c-.09.042-.227.116-.306.165-.006,0-.034.022-.065.044a1.517,1.517,0,0,0,.028-.191l0-.129H19.551l-.095.6c-.043.271-.111.689-.151.93l-.268,1.595c-.04.234-.106.6-.146.827l-.267,1.448c-.042.228-.109.59-.149.8s-.1.554-.145.754-.078.385-.085.415l-.05.209h1.291l.048-.12a.529.529,0,0,0,.022-.153c0-.026.014-.154.037-.3l.241-1.526c.025-.159.054-.353.074-.487l.252.254.375.161.45.061.526-.035.565-.147.146-.067a3,3,0,0,0,.333-.187l.19-.128.159-.158a3.779,3.779,0,0,0,.285-.324.892.892,0,0,0,.135-.2c.01-.018.031-.05.052-.083a2.678,2.678,0,0,0,.185-.366c.057-.134.148-.379.2-.547l.1-.307.049-.253c.028-.145.063-.379.079-.521l.028-.28-.035-.458Z" fill="#f5f5f5"/><path d="M27.8,19.224l-.038.347H26.647c-.465,0-.849,0-1.054,0,0-.009.006-.018.01-.027.034-.093.093-.233.131-.31L25.8,19.1l.293-.291.138-.066a1.787,1.787,0,0,1,.233-.093,2.374,2.374,0,0,1,.318-.036l.232-.015.343.043.232.106.058.062a.8.8,0,0,1,.089.118l.024.046ZM29,19.392v-.224l0-.251-.078-.333-.077-.144a1.729,1.729,0,0,0-.15-.215,1.217,1.217,0,0,0-.184-.167c-.051-.035-.151-.1-.222-.134l-.151-.075-.442-.1-.545-.052-.5.034-.607.119-.184.072a3.908,3.908,0,0,0-.356.171,2.738,2.738,0,0,0-.284.189c-.063.051-.171.15-.242.22a2.349,2.349,0,0,0-.236.287,3.619,3.619,0,0,0-.193.33c-.048.1-.112.231-.142.3s-.081.209-.116.312-.09.3-.124.438-.077.361-.1.5l-.04.266,0,.753.037.158a3.127,3.127,0,0,0,.091.309,2.42,2.42,0,0,0,.12.261,1.481,1.481,0,0,0,.181.24,2.337,2.337,0,0,0,.238.211,1.86,1.86,0,0,0,.288.169l.166.073.2.048c.114.027.285.06.382.073s.294.023.451.025l.274,0,.274-.025c.149-.014.393-.041.542-.062s.417-.07.575-.1l.382-.084.027-.2c.008-.059.041-.234.073-.39l.06-.289-.013-.094L28.27,21.9l-.169.082c-.04.02-.186.074-.331.121l-.24.08-.512.1h-.833l-.126-.04a2.033,2.033,0,0,1-.246-.1l-.1-.05-.165-.148-.129-.218-.089-.312,0-.572.068-.442.624-.029,2.809.019.064-.271c.023-.1.059-.3.079-.45Z" fill="#f5f5f5"/><path d="M32.33,18.776a.755.755,0,0,0,.188.046c.014,0,.14,0,.14-.181,0-.025.022-.158.058-.333a3,3,0,0,0,.063-.34c0-.1-.091-.137-.266-.189a2.327,2.327,0,0,0-.318-.072l-.141-.018-.177.031a2.365,2.365,0,0,0-.309.081,1.711,1.711,0,0,0-.286.145,2.013,2.013,0,0,0-.27.216c-.035.035-.082.086-.129.142.024-.135.047-.257.054-.283l.062-.2H29.777V18c0,.026-.022.184-.06.413-.034.206-.089.55-.123.765s-.094.587-.134.827-.1.584-.134.764l-.134.706c-.04.208-.106.547-.147.754s-.09.452-.109.544a1.1,1.1,0,0,0-.037.235v.125H30.18L30.2,22.8c.008-.118.038-.362.064-.531s.083-.53.125-.784.117-.674.168-.937.112-.521.126-.563a.724.724,0,0,0,.042-.159,1.674,1.674,0,0,1,.078-.189,2.978,2.978,0,0,1,.188-.336l.092-.143.283-.262.323-.155.513,0Z" fill="#f5f5f5"/><path d="M36.477,18.565c.017-.11.047-.29.067-.4.043-.241.037-.279-.009-.325-.029-.028-.041-.04-.286-.068-.111-.013-.415-.036-.674-.051l-.482-.026-.674.053-.508.108-.158.063a2.511,2.511,0,0,0-.3.147c-.07.043-.159.1-.2.129s-.175.152-.27.245l-.2.2-.1.152a4.22,4.22,0,0,0-.229.4l-.122.25-.089.256c-.05.144-.12.378-.155.522l-.066.273-.046.475V21.6l.054.384.157.386.186.285.269.264.337.181.187.052c.111.031.262.064.345.077s.275.022.425.024l.276,0,.312-.037c.17-.02.4-.054.5-.074s.283-.062.387-.093c.215-.059.242-.083.252-.093.028-.022.055-.045.108-.318.025-.127.056-.3.07-.378.029-.176.023-.215-.02-.266l-.042-.038h-.052a.175.175,0,0,0-.1.038c-.019.011-.112.051-.24.1l-.215.081-.64.128-.549-.019-.281-.1L33.483,22l-.145-.265-.073-.359v-.5l.092-.615.051-.171c.028-.095.061-.207.071-.247s.053-.145.093-.237.118-.246.167-.333l.076-.138.208-.221.217-.139.157-.049a2.877,2.877,0,0,1,.323-.073l.157-.026.518.024.614.121.129.048c.152.057.152.057.179.057C36.43,18.871,36.44,18.8,36.477,18.565Z" fill="#f5f5f5"/><path d="M39.711,20.442l-.013.076c-.018.1-.059.287-.092.412s-.093.309-.13.4c-.048.124-.067.18-.075.209s-.042.077-.076.135l-.081.136-.135.134a1.3,1.3,0,0,1-.127.117.714.714,0,0,0-.129.074l-.075.051-.362.114-.354.019-.111-.028a1.172,1.172,0,0,1-.212-.08l-.088-.045-.044-.053a1,1,0,0,1-.1-.148l-.04-.075-.018-.42.036-.123a2.107,2.107,0,0,1,.111-.28l.068-.142.265-.263.27-.133.375-.089ZM40.8,18.035l-.337-.178-.505-.115-.647-.048-.406.025c-.224.014-.54.041-.705.062l-.278.034-.5,0-.049.238c-.016.076-.059.256-.1.4-.08.308-.085.338-.033.39l.041.042h.056a1.209,1.209,0,0,0,.265-.059c.125-.033.392-.089.583-.121l.35-.061.63-.029.406.071.237.117.118.177v.308l-.063.309-1.65.007-.319.084a3.45,3.45,0,0,0-.411.135.346.346,0,0,0-.068.036c-.031,0-.058,0-.274.135l-.208.133-.146.146a2.34,2.34,0,0,0-.244.286,2.41,2.41,0,0,0-.175.332l-.089.217-.076.447,0,.47.07.371.08.157a1.661,1.661,0,0,0,.163.238l.082.1.322.2.2.061c.1.026.241.06.324.072l.155.024.7-.022.437-.113.134-.063a2.624,2.624,0,0,0,.283-.162,2.02,2.02,0,0,0,.272-.224l.062-.065c-.01.1-.017.195-.017.254v.277h1.14l.031-.8.063-.451c.035-.246.092-.611.125-.812s.094-.54.132-.753.1-.549.136-.743l.067-.374,0-.61-.15-.337Z" fill="#f5f5f5"/><path d="M44.8,18.813l.1-.007L45,18.739l0-.145a3.245,3.245,0,0,1,.056-.331l.078-.378-.163-.065c-.038-.014-.125-.043-.193-.064l-.122-.039-.477,0-.422.145-.268.161-.268.275c.021-.11.046-.254.047-.294l0-.182H42.247l-.125.006v.125c0,.022-.023.168-.049.338s-.083.533-.123.781-.1.646-.146.888-.1.584-.134.765l-.133.7L41.2,23.132h1.34V22.7l.062-.4c.034-.221.089-.572.124-.779s.077-.472.1-.585.064-.356.1-.541.09-.387.107-.436a.866.866,0,0,0,.044-.159,1.976,1.976,0,0,1,.091-.212l.088-.191.254-.337.13-.1a1.928,1.928,0,0,1,.265-.164l.113-.056.56,0Z" fill="#f5f5f5"/><path d="M45.829,19.942a1.3,1.3,0,0,1,.065-.164c.04-.089.1-.226.146-.305a2.514,2.514,0,0,1,.164-.261,2.164,2.164,0,0,1,.2-.229,1.541,1.541,0,0,1,.2-.162l.085-.055.363-.126h.766l.215.059c.1.027.2.059.259.077-.012.066-.036.2-.058.325-.028.161-.083.467-.123.681s-.1.537-.134.718-.083.4-.109.5l-.083.308a1.947,1.947,0,0,1-.1.249,1.845,1.845,0,0,1-.132.232,1.15,1.15,0,0,1-.141.165,1.791,1.791,0,0,1-.2.152l-.12.079-.355.113-.323.021L46.3,22.3a1.164,1.164,0,0,1-.214-.065l-.1-.044-.166-.135-.128-.247-.062-.272.005-.617.074-.54.06-.194C45.856,19.892,45.828,19.942,45.829,19.942Zm2.96-4.317-.027.264c-.008.083-.048.356-.087.608s-.106.659-.146.9l-.075.455c-.081-.023-.177-.048-.183-.049l-.252-.062-.655-.049-.555.053-.511.133-.482.237-.358.268-.147.158a3.785,3.785,0,0,0-.271.332l-.123.18-.132.275c-.077.16-.166.36-.2.455s-.1.307-.144.475l-.078.312-.073.778.06.635.032.108c.019.063.059.176.088.249l.051.129.224.305.238.191.146.071a1.866,1.866,0,0,0,.322.123,2.8,2.8,0,0,0,.322.066c.085.011.259.021.4.023l.242,0,.23-.038c.114-.019.278-.051.354-.073a1.93,1.93,0,0,0,.292-.117l.171-.093.269-.24v0c-.006.049-.012.1-.016.14l-.029.3H48.9v-.438l.073-.621c.04-.341.1-.794.131-1.007s.082-.519.11-.678.08-.452.113-.646.094-.534.134-.754l.276-1.5c.035-.188.1-.515.138-.729s.1-.514.134-.667a1.775,1.775,0,0,0,.061-.342v-.125h-1.28Z" fill="#f5f5f5"/></g></svg>