<svg xmlns="http://www.w3.org/2000/svg" width="343.621" height="49.969" viewBox="0 0 343.621 49.969">
  <g id="Grupo_1" data-name="Grupo 1" transform="translate(-249.135 -272.653)">
    <path id="Caminho_1" data-name="Caminho 1" d="M443.514,272.653h-3.762v30.108a5.04,5.04,0,0,1-5.024,5.028h-5.007a5.048,5.048,0,0,1-5.024-5.028V292.718a5.029,5.029,0,0,1,5.024-5.007H436a1.262,1.262,0,0,0,1.254-1.259v-3.769h-7.531a10.062,10.062,0,0,0-10.02,10.035v10.043a10.059,10.059,0,0,0,10.02,10.042h5.007a10.081,10.081,0,0,0,10.051-10.042V273.913A1.265,1.265,0,0,0,443.514,272.653Z" fill="#00a1ed"/>
    <path id="Caminho_2" data-name="Caminho 2" d="M582.725,282.683H572.693v3.769a1.263,1.263,0,0,0,1.247,1.259h8.788a5.005,5.005,0,0,1,4.7,3.256l-11.184,1.859a10.043,10.043,0,0,0,1.465,19.977h5.023a10.041,10.041,0,0,0,10.028-10.029V292.718A10.033,10.033,0,0,0,582.725,282.683Zm5.019,20.091a5.026,5.026,0,0,1-5.016,5.015h-5.023a5.028,5.028,0,0,1-1.465-9.833l11.5-1.895Z" fill="#00a1ed"/>
    <path id="Caminho_3" data-name="Caminho 3" d="M486.158,307.789h-1.265a5.019,5.019,0,0,1-5-5.015V273.913a1.262,1.262,0,0,0-1.258-1.26h-3.766v30.121a10.041,10.041,0,0,0,10,10.029h1.3a1.252,1.252,0,0,0,1.239-1.259v-2.5A1.246,1.246,0,0,0,486.158,307.789Z" fill="#00a1ed"/>
    <path id="Caminho_4" data-name="Caminho 4" d="M462.334,282.683H457.3a10.048,10.048,0,0,0-10.024,10.035v10.056A10.034,10.034,0,0,0,457.311,312.8h10.031V309.04a1.252,1.252,0,0,0-1.258-1.251H457.3a5.024,5.024,0,0,1-4.7-3.278l11.2-1.852a10.043,10.043,0,0,0-1.461-19.976Zm1.461,14.846-11.5,1.9v-6.707a5,5,0,0,1,5-5.007h5.035a5.019,5.019,0,0,1,1.461,9.818Z" fill="#00a1ed"/>
    <path id="Caminho_5" data-name="Caminho 5" d="M291.775,282.465h-5.011A10.073,10.073,0,0,0,276.732,292.5v10.057a10.073,10.073,0,0,0,10.032,10.035h7.523v-3.77a1.259,1.259,0,0,0-1.254-1.258h-6.269a5.032,5.032,0,0,1-5.016-5.007V292.5a5.039,5.039,0,0,1,5.016-5.015h5.011A5.043,5.043,0,0,1,296.8,292.5v20.092a5.006,5.006,0,0,1-5.012,5H283a1.265,1.265,0,0,0-1.25,1.259v2.51a1.255,1.255,0,0,0,1.25,1.26h8.777A10.023,10.023,0,0,0,301.8,312.593V292.5A10.067,10.067,0,0,0,291.775,282.465Z" fill="#96999c"/>
    <path id="Caminho_6" data-name="Caminho 6" d="M407.162,282.465H397.135v3.769a1.249,1.249,0,0,0,1.258,1.252h8.789a5.011,5.011,0,0,1,4.691,3.271l-11.191,1.859a10.044,10.044,0,0,0,1.461,19.977h5.039A10.044,10.044,0,0,0,417.2,302.558V292.5A10.03,10.03,0,0,0,407.162,282.465Zm5.031,20.093a5.015,5.015,0,0,1-5.011,5.007h-5.039a5.016,5.016,0,0,1-1.461-9.812l11.511-1.9Z" fill="#96999c"/>
    <path id="Caminho_7" data-name="Caminho 7" d="M388.353,274.882h-2.507a1.256,1.256,0,0,0-1.254,1.26V279.9h3.761a1.255,1.255,0,0,0,1.25-1.258v-2.5A1.248,1.248,0,0,0,388.353,274.882Z" fill="#96999c"/>
    <path id="Caminho_8" data-name="Caminho 8" d="M388.353,282.407h-3.761v28.848a1.259,1.259,0,0,0,1.254,1.252h2.507a1.25,1.25,0,0,0,1.25-1.252V283.666A1.256,1.256,0,0,0,388.353,282.407Z" fill="#96999c"/>
    <path id="Caminho_9" data-name="Caminho 9" d="M319.369,282.465h-5.027a10.048,10.048,0,0,0-10.02,10.036v10.057a10.036,10.036,0,0,0,10.031,10.035h10.036v-3.77a1.257,1.257,0,0,0-1.25-1.258h-8.8a4.991,4.991,0,0,1-4.684-3.263l11.188-1.853a10.048,10.048,0,0,0-1.477-19.984Zm1.477,14.846-11.5,1.9V292.5a5.022,5.022,0,0,1,5-5.015h5.027a5.025,5.025,0,0,1,1.477,9.825Z" fill="#96999c"/>
    <path id="Caminho_10" data-name="Caminho 10" d="M264.186,282.465H254.15v3.769a1.252,1.252,0,0,0,1.254,1.252H264.2a4.985,4.985,0,0,1,4.684,3.271l-11.191,1.859a10.044,10.044,0,0,0,1.472,19.977H264.2a10.06,10.06,0,0,0,10.028-10.035V292.5A10.039,10.039,0,0,0,264.186,282.465Zm5.015,20.093a5.014,5.014,0,0,1-5,5.007h-5.035a5.018,5.018,0,0,1-1.472-9.812l11.511-1.9Z" fill="#96999c"/>
    <path id="Caminho_11" data-name="Caminho 11" d="M324.385,278.645v-2.5a1.254,1.254,0,0,0-1.246-1.26H310.6a1.264,1.264,0,0,0-1.261,1.26V279.9h13.8A1.258,1.258,0,0,0,324.385,278.645Z" fill="#96999c"/>
    <path id="Caminho_12" data-name="Caminho 12" d="M346.947,282.7h-5A10.028,10.028,0,0,0,331.9,292.731v18.813a1.264,1.264,0,0,0,1.262,1.252h2.512a1.259,1.259,0,0,0,1.25-1.252V292.731a5.03,5.03,0,0,1,5.019-5.02h5a5.024,5.024,0,0,1,5.016,5.02v18.813a1.264,1.264,0,0,0,1.254,1.252h3.773V292.731A10.03,10.03,0,0,0,346.947,282.7Z" fill="#96999c"/>
    <path id="Caminho_13" data-name="Caminho 13" d="M513.736,282.7h-2.511a1.261,1.261,0,0,0-1.254,1.252v18.818a5.017,5.017,0,0,1-5.016,5.015h-5a5.019,5.019,0,0,1-5.019-5.015V283.956a1.262,1.262,0,0,0-1.254-1.252h-3.77v20.07A10.032,10.032,0,0,0,499.959,312.8h5A10.035,10.035,0,0,0,515,302.774V283.956A1.263,1.263,0,0,0,513.736,282.7Z" fill="#00a1ed"/>
    <path id="Caminho_14" data-name="Caminho 14" d="M359.51,292.5v10.057a10.043,10.043,0,0,0,10.043,10.035H380.83a1.255,1.255,0,0,0,1.246-1.259v-2.511a1.25,1.25,0,0,0-1.246-1.258H369.537a5.019,5.019,0,0,1-5.012-5.007V292.5a5.026,5.026,0,0,1,5.012-5.015H380.83a1.244,1.244,0,0,0,1.246-1.252v-3.769H369.553A10.039,10.039,0,0,0,359.51,292.5Z" fill="#96999c"/>
    <path id="Caminho_15" data-name="Caminho 15" d="M517.518,292.5v10.057a10.036,10.036,0,0,0,10.043,10.035h11.273a1.253,1.253,0,0,0,1.246-1.259v-2.511a1.248,1.248,0,0,0-1.246-1.258H527.545a5.014,5.014,0,0,1-5.012-5.007V292.5a5.02,5.02,0,0,1,5.012-5.015h11.289a1.242,1.242,0,0,0,1.246-1.252v-3.769H527.561A10.031,10.031,0,0,0,517.518,292.5Z" fill="#00a1ed"/>
    <path id="Caminho_16" data-name="Caminho 16" d="M542.6,292.5v10.057a10.036,10.036,0,0,0,10.043,10.035h11.273a1.255,1.255,0,0,0,1.246-1.259v-2.511a1.251,1.251,0,0,0-1.246-1.258H552.619a5.013,5.013,0,0,1-5.008-5.007V292.5a5.02,5.02,0,0,1,5.008-5.015h11.293a1.245,1.245,0,0,0,1.246-1.252v-3.769H552.639A10.031,10.031,0,0,0,542.6,292.5Z" fill="#00a1ed"/>
  </g>
</svg>
