<svg id="mercado-livre-icone" xmlns="http://www.w3.org/2000/svg" width="19.766" height="13.685" viewBox="0 0 19.766 13.685">
  <path id="Caminho_298" data-name="Caminho 298" d="M19.766,6.465C19.766,2.905,15.337,0,9.883,0S0,2.905,0,6.465V6.85c0,3.774,3.873,6.835,9.883,6.835,6.052,0,9.883-3.062,9.883-6.835Z" fill="#060e9f"/>
  <ellipse id="Elipse_7" data-name="Elipse 7" cx="9.498" cy="6.081" rx="9.498" ry="6.081" transform="translate(0.384 0.384)" fill="#00adee"/>
  <g id="Grupo_184" data-name="Grupo 184" transform="translate(0.456 2.348)">
    <path id="Caminho_299" data-name="Caminho 299" d="M46.937,18.686c0,.014-.1.114-.043.185a1.229,1.229,0,0,0,1.082.2,2.8,2.8,0,0,0,.983-.627,3.8,3.8,0,0,1,1.125-.712A1.318,1.318,0,0,1,50.9,17.7a2.312,2.312,0,0,1,.741.441c.655.484,3.261,2.777,3.717,3.161a22.385,22.385,0,0,1,4.172-1.339,5.118,5.118,0,0,0-1.979-3.119,6.127,6.127,0,0,1-5.155.085,4.98,4.98,0,0,0-1.951-.441,3.486,3.486,0,0,0-2.706,1.31Z" transform="translate(-40.657 -16.491)" fill="#fff"/>
    <path id="Caminho_300" data-name="Caminho 300" d="M17.8,22.6c-.028-.028-3.076-2.691-3.759-3.2a1.671,1.671,0,0,0-.854-.4,1.025,1.025,0,0,0-.413.043,3.489,3.489,0,0,0-1.111.669,3.069,3.069,0,0,1-1.082.669,1.7,1.7,0,0,1-1.2-.185.548.548,0,0,1-.2-.214.379.379,0,0,1,.1-.4l.84-.911c.1-.1.2-.2.3-.285a4.327,4.327,0,0,0-.769.171,3.328,3.328,0,0,1-.9.171c-.128,0-.783-.114-.911-.142A13.933,13.933,0,0,1,5.422,17.7,5.317,5.317,0,0,0,3.2,20.918c.171.043.441.128.57.157,2.706.6,3.546,1.225,3.7,1.353a.887.887,0,0,1,1.4.085,1,1,0,0,1,.641-.228,1.221,1.221,0,0,1,.384.071.9.9,0,0,1,.541.5.945.945,0,0,1,.37-.085,1.1,1.1,0,0,1,.456.1.954.954,0,0,1,.527,1.068H11.9a1.076,1.076,0,0,1,1.068,1.068,1.053,1.053,0,0,1-.128.513,1.748,1.748,0,0,0,.926.256.657.657,0,0,0,.441-.185c.028-.043.057-.085.028-.114l-.769-.84s-.128-.114-.085-.171.114.014.171.071c.384.328.869.812.869.812a.36.36,0,0,0,.214.1.754.754,0,0,0,.6-.142.612.612,0,0,0,.128-.142h-.014a.387.387,0,0,0-.028-.5l-.9-1s-.128-.114-.085-.171.114.014.171.071c.285.242.684.641,1.068,1.011a.733.733,0,0,0,.854-.028.592.592,0,0,0,.313-.555.622.622,0,0,0-.185-.37L15.347,22.4s-.128-.114-.085-.171.114.014.171.071c.384.328,1.438,1.282,1.438,1.282a.733.733,0,0,0,.826-.014.64.64,0,0,0,.1-.968Z" transform="translate(-3.2 -17.528)" fill="#fff"/>
    <path id="Caminho_301" data-name="Caminho 301" d="M37.543,52.109a2.747,2.747,0,0,0-.427.1c-.014-.014.014-.085.028-.128s.271-.8-.342-1.054a.706.706,0,0,0-.84.128c-.028.028-.043.028-.043-.014a.7.7,0,0,0-.47-.627.909.909,0,0,0-1.025.37.665.665,0,1,0-.655.755.633.633,0,0,0,.456-.185v.028a.856.856,0,0,0,.541,1,.631.631,0,0,0,.641-.1c.057-.043.057-.028.057.028-.028.157,0,.484.47.669a.6.6,0,0,0,.7-.128c.057-.057.071-.043.085.043a.83.83,0,0,0,.826.8.84.84,0,1,0,0-1.68Z" transform="translate(-28.842 -45.485)" fill="#fff"/>
  </g>
  <path id="Caminho_302" data-name="Caminho 302" d="M18.01,19.627c-.94-.812-3.1-2.706-3.688-3.147a2.5,2.5,0,0,0-.769-.441,1.187,1.187,0,0,0-.37-.057,1.43,1.43,0,0,0-.47.085,3.908,3.908,0,0,0-1.125.712l-.014.014a3.183,3.183,0,0,1-.954.612,1.521,1.521,0,0,1-.356.043.913.913,0,0,1-.669-.214c-.014-.014,0-.057.028-.1h0l.826-.883a3.42,3.42,0,0,1,2.663-1.282h.071a5.074,5.074,0,0,1,1.851.441,5.742,5.742,0,0,0,2.521.6,6.569,6.569,0,0,0,2.763-.655c-.114-.085-.214-.185-.328-.271a6.014,6.014,0,0,1-2.421.555,5.192,5.192,0,0,1-2.35-.57,5.488,5.488,0,0,0-2.008-.47h-.085a3.465,3.465,0,0,0-2.293.812,4.269,4.269,0,0,0-1.139.214,3.011,3.011,0,0,1-.812.157c-.1,0-.285-.014-.3-.014a16.967,16.967,0,0,1-2.891-.8l-.342.256a14.089,14.089,0,0,0,3.147.911,3.753,3.753,0,0,0,.4.028A3.326,3.326,0,0,0,9.808,16c.171-.043.37-.1.57-.142l-.157.157-.84.911a.413.413,0,0,0-.114.47.674.674,0,0,0,.214.242,1.8,1.8,0,0,0,.883.228,1.435,1.435,0,0,0,.356-.043,3.178,3.178,0,0,0,1.111-.684,4,4,0,0,1,1.1-.655,1.164,1.164,0,0,1,.3-.043h.085a1.562,1.562,0,0,1,.826.4c.684.513,3.731,3.176,3.759,3.2a.583.583,0,0,1,.185.441.5.5,0,0,1-.242.384.733.733,0,0,1-.4.128.806.806,0,0,1-.356-.1c-.014-.014-1.054-.968-1.438-1.282a.269.269,0,0,0-.185-.1.123.123,0,0,0-.085.043c-.057.071.014.171.085.242l1.225,1.225a.566.566,0,0,1,.171.328.538.538,0,0,1-.285.5.731.731,0,0,1-.427.142.678.678,0,0,1-.342-.1l-.171-.171c-.313-.313-.655-.641-.9-.84a.4.4,0,0,0-.185-.1.109.109,0,0,0-.071.028c-.028.028-.043.085.028.171a.514.514,0,0,0,.057.071l.883,1a.325.325,0,0,1,.014.427l-.028.043-.085.085a.715.715,0,0,1-.441.142.278.278,0,0,1-.114-.014.321.321,0,0,1-.171-.071l-.014-.014a9.435,9.435,0,0,0-.869-.812.281.281,0,0,0-.171-.085.123.123,0,0,0-.085.043c-.071.085.043.2.085.242l.755.84c0,.014-.014.028-.028.057s-.114.128-.4.171h-.1a1.906,1.906,0,0,1-.741-.214,1.129,1.129,0,0,0-1.011-1.623H12a1.017,1.017,0,0,0-.57-1.068,1.117,1.117,0,0,0-.47-.1.908.908,0,0,0-.342.057.916.916,0,0,0-.555-.47,1.4,1.4,0,0,0-.413-.071,1.092,1.092,0,0,0-.627.2.952.952,0,0,0-.741-.356.9.9,0,0,0-.669.285A10.117,10.117,0,0,0,3.941,18.4c-.128-.028-.4-.114-.57-.157a4.174,4.174,0,0,0-.071.413s.456.114.555.128A9.493,9.493,0,0,1,7.4,20.054a1.07,1.07,0,0,0-.071.37.954.954,0,0,0,.954.954.693.693,0,0,0,.171-.014,1.137,1.137,0,0,0,.726.84.979.979,0,0,0,.342.071,1.1,1.1,0,0,0,.214-.028.964.964,0,0,0,.6.555.9.9,0,0,0,.37.071.744.744,0,0,0,.3-.057,1.114,1.114,0,0,0,1.04.7,1.167,1.167,0,0,0,.812-.342,2.163,2.163,0,0,0,.954.285.439.439,0,0,0,.142-.014.9.9,0,0,0,.655-.313.311.311,0,0,0,.043-.071.979.979,0,0,0,.313.043.964.964,0,0,0,.612-.228.908.908,0,0,0,.37-.527v-.014a1.078,1.078,0,0,0,.214.014,1.248,1.248,0,0,0,.641-.2.918.918,0,0,0,.456-.812,1.1,1.1,0,0,0,.214.028,1.088,1.088,0,0,0,.6-.185.86.86,0,0,0,.413-.669.9.9,0,0,0-.128-.541A23.987,23.987,0,0,1,22.3,18.73a4.109,4.109,0,0,0-.057-.413A18.992,18.992,0,0,0,18.01,19.627ZM11.987,23.1a.769.769,0,0,1-.769-.741c0-.028,0-.128-.085-.128a.189.189,0,0,0-.1.043.542.542,0,0,1-.384.171.647.647,0,0,1-.256-.057c-.441-.185-.441-.484-.427-.6a.242.242,0,0,0-.014-.1l-.028-.028H9.893c-.028,0-.043.014-.071.028a.683.683,0,0,1-.37.128.571.571,0,0,1-.214-.043.811.811,0,0,1-.513-.94c0-.028,0-.057-.028-.071l-.028-.014-.028.028a.57.57,0,0,1-.413.171.6.6,0,0,1,0-1.2.612.612,0,0,1,.6.527l.014.157.085-.142a.9.9,0,0,1,.7-.384.806.806,0,0,1,.256.043.619.619,0,0,1,.427.57c0,.085.057.085.071.085a.078.078,0,0,0,.071-.043.61.61,0,0,1,.441-.185.972.972,0,0,1,.328.071c.57.242.313.968.313.968-.043.114-.057.171,0,.2l.028.014h.014a.64.64,0,0,0,.114-.028.922.922,0,0,1,.3-.071h0a.783.783,0,0,1,0,1.566Z" transform="translate(-2.83 -12.521)" fill="#060e9f"/>
</svg>
