<svg 
 xmlns="http://www.w3.org/2000/svg"
 xmlns:xlink="http://www.w3.org/1999/xlink"
 width="17px" height="17px">
<path fill-rule="evenodd"  fill="rgb(0, 158, 223)"
 d="M16.621,14.773 L13.117,11.268 C13.961,10.049 14.384,8.690 14.384,7.191 C14.384,6.217 14.195,5.286 13.817,4.397 C13.439,3.508 12.928,2.742 12.285,2.098 C11.641,1.455 10.876,0.943 9.987,0.566 C9.098,0.188 8.167,-0.001 7.193,-0.001 C6.219,-0.001 5.288,0.188 4.399,0.566 C3.511,0.943 2.744,1.455 2.101,2.098 C1.458,2.742 0.946,3.508 0.569,4.397 C0.191,5.286 0.002,6.217 0.002,7.191 C0.002,8.166 0.191,9.097 0.569,9.986 C0.946,10.875 1.458,11.641 2.101,12.284 C2.744,12.928 3.511,13.439 4.399,13.818 C5.288,14.195 6.219,14.384 7.193,14.384 C8.691,14.384 10.050,13.962 11.269,13.117 L14.772,16.611 C15.017,16.870 15.323,17.000 15.691,17.000 C16.045,17.000 16.352,16.870 16.610,16.611 C16.869,16.353 16.998,16.046 16.998,15.692 C16.998,15.331 16.873,15.025 16.621,14.773 L16.621,14.773 ZM10.426,10.425 C9.530,11.321 8.453,11.769 7.193,11.769 C5.933,11.769 4.856,11.321 3.960,10.425 C3.065,9.529 2.617,8.452 2.617,7.191 C2.617,5.931 3.065,4.853 3.960,3.958 C4.856,3.062 5.933,2.615 7.193,2.615 C8.453,2.615 9.530,3.062 10.426,3.958 C11.321,4.853 11.769,5.931 11.769,7.191 C11.769,8.452 11.321,9.529 10.426,10.425 L10.426,10.425 Z"/>
</svg>