<svg id="Layer_1" data-name="Layer 1" xmlns="http://www.w3.org/2000/svg" xmlns:xlink="http://www.w3.org/1999/xlink" viewBox="0 0 893 359">
  <defs>
    <linearGradient id="Gradiente_sem_nome_21" x1="301.54" y1="306.76" x2="201.66" y2="180.34" gradientUnits="userSpaceOnUse">
      <stop offset="0"/>
      <stop offset="1" stop-opacity="0"/>
    </linearGradient>
    <linearGradient id="Gradiente_sem_nome_21-2" x1="258.61" y1="359.05" x2="148.59" y2="219.8" xlink:href="#Gradiente_sem_nome_21"/>
    <style>
      .cls-5{fill:#fff}.cls-8{fill:#868686}.cls-9{fill:#90be21}.cls-10{fill:#007841}
    </style>
  </defs>
  <rect x="282.45" y="128.03" width="552.96" height="102.94" rx="26.39" fill="#92c021"/>
  <path fill="#007d41" d="M340.4 179.49l-14.25 11.13 12.11 13.44-15.97 8.47 9.59 15.34-17.2 5.57 6.78 16.76-17.9 2.51 3.77 17.69-18.08-.64.65 18.06-17.68-3.76-2.52 17.91-16.77-6.8-5.57 17.22-15.32-9.6-8.5 15.97-13.41-12.11L199 320.91l-11.12-14.26-13.43 12.11-8.49-15.97-15.33 9.6-5.57-17.22-16.78 6.8-2.49-17.91-17.68 3.76.63-18.06-18.08.64 3.77-17.69-17.9-2.51 6.78-16.76-17.19-5.57 9.58-15.34-15.97-8.47 12.11-13.44-14.25-11.13 14.25-11.11-12.11-13.44 15.97-8.47-9.58-15.34 17.19-5.58-6.78-16.75 17.9-2.51-3.77-17.69 18.08.64-.63-18.06 17.68 3.76 2.49-17.91 16.78 6.78 5.57-17.2 15.33 9.59 8.49-15.96 13.43 12.09L199 38.09l11.13 14.24 13.41-12.09 8.5 15.96 15.32-9.59 5.57 17.2 16.77-6.78 2.52 17.91 17.68-3.76-.65 18.06 18.08-.64-3.77 17.69 17.9 2.51-6.78 16.75 17.2 5.58-9.59 15.34 15.97 8.47-12.11 13.44 14.25 11.11z"/>
  <path d="M202.22 113.62a65.89 65.89 0 00-49.85 110.32.16.16 0 010 .15L144 245a.14.14 0 00.2.18l20.65-10.53a.14.14 0 01.14 0 65.89 65.89 0 1037.21-121.07z" stroke-linecap="round" stroke-width="3.17" stroke="#fff" stroke-miterlimit="10" fill="#92c021"/>
  <path d="M242.24 134.29a59.39 59.39 0 0115.76 40.3c0 33.43-27.84 60.54-62.17 60.54a62.87 62.87 0 01-41.39-15.37A62.75 62.75 0 00200.85 240c34.34 0 62.17-27.1 62.17-60.54a59.69 59.69 0 00-20.78-45.17z" fill="url(#Gradiente_sem_nome_21)" opacity=".61"/>
  <path class="cls-5" d="M177.62 174.14a3.32 3.32 0 006.63 0V166h8.11a3.31 3.31 0 000-6.62h-8.11v-8.08a3.32 3.32 0 00-6.63 0v8.11h-8.1a3.31 3.31 0 000 6.62h8.1zM209.48 166h22.84a3.31 3.31 0 000-6.62h-22.84a3.31 3.31 0 000 6.62zM223.6 190.38a3.31 3.31 0 00-6.5-1.28 17.17 17.17 0 01-33.69 0 3.31 3.31 0 00-6.5 1.28 23.79 23.79 0 0046.69 0z"/>
  <path d="M150.53 222.6c.51.57 1 1.14 1.57 1.69l.1-.25c-.56-.47-1.12-.95-1.67-1.44z" fill="url(#Gradiente_sem_nome_21-2)" opacity=".61"/>
  <circle cx="199" cy="179.5" r="120.15" fill="none" stroke-width="5.28" stroke="#fff" stroke-miterlimit="10"/>
  <path class="cls-5" d="M135.41 125a4.56 4.56 0 011.25 1.36 4 4 0 01.53 1.58 4 4 0 01-.16 1.65 5.22 5.22 0 01-.79 1.56 5.36 5.36 0 01-1.28 1.24 4.05 4.05 0 01-1.53.62 4.24 4.24 0 01-1.66-.06 4.71 4.71 0 01-1.67-.82l-11-8.18a4.68 4.68 0 01-1.25-1.36 3.86 3.86 0 01-.53-1.56 4.18 4.18 0 01.15-1.64 5 5 0 01.8-1.59 5.06 5.06 0 011.28-1.21 4.43 4.43 0 011.53-.63 4.05 4.05 0 011.66 0 4.86 4.86 0 011.67.81zm-3.83 5.1a1.81 1.81 0 001.46.42 2.27 2.27 0 001.67-2.24 1.81 1.81 0 00-.83-1.28l-11-8.15a1.77 1.77 0 00-1.46-.42 2 2 0 00-1.22.83 2 2 0 00-.45 1.41 1.83 1.83 0 00.82 1.28zM129 106a4.15 4.15 0 013.09-1.35 5.26 5.26 0 013.47 1.84l2.22 2.24a5.26 5.26 0 011.82 3.48 4.15 4.15 0 01-1.38 3.08l-1.37 1.37 6 6-1.8 1.79-15.25-15.29zm6.12 8.91l1.23-1.22q1.41-1.41-.24-3.07l-2.45-2.47q-1.65-1.66-3.06-.27l-1.24 1.23zM138.78 97.47l13.35 17-2 1.57L136.78 99zM146.43 92.15L157.32 103l-7.75-12.74 1.89-1.15 11.24 18.47-1.93 1.18-11.84-11.44 8.27 13.59-1.88 1.15-11.25-18.47zM159.68 85.11l9 19.67-2.31 1.06-9-19.68zM164.4 79.63a4.49 4.49 0 01.64-1.84 2.66 2.66 0 011.46-1 3 3 0 011.14-.15 9.51 9.51 0 011 .17l.92.18a1.82 1.82 0 00.94-.08 1.87 1.87 0 00.85-.56 2.51 2.51 0 00.45-1.35l1.22.54a4.67 4.67 0 01-.66 1.88 2.48 2.48 0 01-1.35 1 2.75 2.75 0 01-1.1.14c-.33 0-.66-.1-1-.17s-.65-.13-1-.17a2.23 2.23 0 00-1 .11 1.85 1.85 0 00-.85.55 2.28 2.28 0 00-.48 1.26zm15.09 17.1a4.68 4.68 0 01.23 1.85 4 4 0 01-.5 1.59 4.05 4.05 0 01-1.09 1.25 5.23 5.23 0 01-1.56.8 5.14 5.14 0 01-1.76.25 3.77 3.77 0 01-1.6-.38 4.12 4.12 0 01-1.31-1 4.63 4.63 0 01-.88-1.63l-4.18-13.08a4.43 4.43 0 01-.22-1.84 3.75 3.75 0 01.48-1.54 4.11 4.11 0 011.08-1.25 5 5 0 011.58-.82 5 5 0 011.73-.23 4.18 4.18 0 011.62.38 3.86 3.86 0 011.32 1 4.47 4.47 0 01.88 1.63zm-6.09 1.92a1.81 1.81 0 00.95 1.19 2 2 0 001.48 0A2.05 2.05 0 00177 99a1.83 1.83 0 00.08-1.52l-4.16-13a1.81 1.81 0 00-1-1.19 2 2 0 00-1.47 0 2 2 0 00-1.19.89 1.83 1.83 0 00-.08 1.52zM187.83 77.17l.41 2.42-4.54.77 1.13 6.7 3.21-.54.41 2.42-3.21.54 1.24 7.35 4.54-.76.41 2.42-7.05 1.19-3.6-21.32zM198.17 76a4 4 0 013.1 1.06 4.31 4.31 0 011.21 3v.78l-2.35.07v-.58a2.14 2.14 0 00-.54-1.47 1.75 1.75 0 00-1.4-.51 1.72 1.72 0 00-1.48.72 2.75 2.75 0 00-.43 1.66 4 4 0 00.34 1.5 7.58 7.58 0 00.89 1.45c.25.34.56.73.93 1.18s.76.92 1.15 1.41.78 1 1.14 1.46.68.91 1 1.31a8.48 8.48 0 011 1.9 7.17 7.17 0 01.36 2.09 6.19 6.19 0 01-.93 3.83 3.86 3.86 0 01-3.24 1.5 5.34 5.34 0 01-1.93-.27 4.24 4.24 0 01-1.45-.85 4 4 0 01-.94-1.31 4.33 4.33 0 01-.37-1.65v-1.16l2.37.54v.52a1.91 1.91 0 00.58 1.34 2 2 0 001.52.53 1.88 1.88 0 001.54-.71 3 3 0 00.45-1.9 5.49 5.49 0 00-.28-1.51 7.35 7.35 0 00-.9-1.68c-.21-.31-.48-.65-.79-1l-1-1.18c-.35-.42-.69-.83-1-1.26s-.63-.83-.9-1.22a11 11 0 01-1.37-2.6 7.3 7.3 0 01-.42-2.18 4.77 4.77 0 01.97-3.44 4.27 4.27 0 013.17-1.37zM198.29 260.24l2.81 16 2.16-16.12 2.46-.06-3.26 21.7-2.51.06-4.14-21.54zM215.44 258.62l.38 2.43-4.55.72 1.06 6.71 3.22-.51.38 2.43-3.22.51 1.17 7.36 4.55-.72.39 2.43-7.07 1.12-3.38-21.36zM222.31 256.79a3.93 3.93 0 015.36 2.8l.91 2.87a4.33 4.33 0 01.23 2 2.33 2.33 0 01-.76 1.34 2.5 2.5 0 011.5.66 4.1 4.1 0 011 1.84l2.43 7.75-2.4.75-2.41-7.8a2.12 2.12 0 00-.81-1.27 2.17 2.17 0 00-1.62.06l-1.79.57 3 9.61-2.37.75-6.48-20.63zm1 9.5l1.64-.51a2.13 2.13 0 001.35-.9 2.18 2.18 0 000-1.57l-.85-2.68c-.43-1.39-1.28-1.89-2.55-1.49l-1.63.51zM233.71 252.41a4.17 4.17 0 013.36-.24 5.24 5.24 0 012.65 2.9l5 10.57a5.27 5.27 0 01.55 3.9 4.15 4.15 0 01-2.33 2.44l-4 1.9-9.22-19.56zm6.42 18.17l1.57-.75c1.2-.56 1.47-1.55.8-3L237.38 256c-.67-1.41-1.6-1.84-2.8-1.27l-1.57.74zM244.47 246.28l15 16-2.06 1.34-2.12-2.34-3.38 2.21 1.32 2.87-2.05 1.35-8.81-20.09zm6.53 15.29l2.81-1.84-7.36-8.12zM253 239.67a4.16 4.16 0 013.16-1.18 5.29 5.29 0 013.36 2l7.75 8.74a5.29 5.29 0 011.62 3.58 4.15 4.15 0 01-1.55 3l-3.35 3-14.34-16.19zm11.26 15.63l1.3-1.15c1-.88 1-1.91-.06-3.08l-8-9c-1-1.17-2.05-1.32-3.05-.44l-1.3 1.15zM263.1 229l1.87 1.61-3 3.49 5.14 4.44 2.13-2.47 1.86 1.6-2.1 2.47 5.65 4.87 3-3.5 1.86 1.61-4.67 5.42-16.38-14.12zM266.45 224.28l17.73 12.38-1.45 2.08L265 226.36zM270.59 217.43a4.3 4.3 0 012.49-2.22 4.25 4.25 0 013.32.5l2.64 1.43a4.47 4.47 0 011.59 1.3 2.29 2.29 0 01.38 1.5 2.55 2.55 0 011.54-.58 4.08 4.08 0 012 .6l7.14 3.88-1.2 2.2-7.21-3.91a2.11 2.11 0 00-1.46-.34c-.38.1-.76.49-1.12 1.17l-.9 1.65 8.86 4.81-1.19 2.18-19-10.31zm7.32 6.14l.82-1.51a2.1 2.1 0 00.34-1.59 2.16 2.16 0 00-1.11-1.09l-2.48-1.38c-1.28-.7-2.23-.46-2.87.7l-.81 1.51zM275.84 205.6l21.59 3.94-.84 2.3-3.1-.61-1.4 3.79 2.77 1.52-.85 2.3L275 208zm14.37 8.4l1.17-3.16-10.76-2.13zM278.22 195.7A4 4 0 01280 193a4.25 4.25 0 013.23-.44l.76.17-.5 2.29-.56-.12a2.16 2.16 0 00-1.57.17 1.79 1.79 0 00-.83 1.23 1.73 1.73 0 00.35 1.62 2.76 2.76 0 001.5.82 4 4 0 001.53 0 7.72 7.72 0 001.63-.51c.39-.16.85-.37 1.37-.62l1.65-.77c.58-.27 1.14-.52 1.69-.75s1.05-.45 1.5-.61a8.73 8.73 0 012.09-.5 7.17 7.17 0 012.11.16 6.17 6.17 0 013.49 1.83 3.87 3.87 0 01.67 3.51 5.23 5.23 0 01-.73 1.8 4.1 4.1 0 01-1.18 1.2 4 4 0 01-1.5.6 4.33 4.33 0 01-1.68 0l-1.14-.25 1.09-2.16.51.11a1.92 1.92 0 001.44-.24 2 2 0 00.89-1.35 1.85 1.85 0 00-.32-1.67 3.06 3.06 0 00-1.73-.89 4.84 4.84 0 00-1.53-.09 6.47 6.47 0 00-1.85.46 12.06 12.06 0 00-1.19.52l-1.39.67c-.48.24-1 .47-1.46.69s-1 .42-1.42.58a10.68 10.68 0 01-2.84.7 7.65 7.65 0 01-2.22-.12 4.75 4.75 0 01-3.08-1.9 4.2 4.2 0 01-.56-3.44zM356.69 156.44h11c3.81 0 6.6.89 8.35 2.67s2.63 4.5 2.63 8.19v2.9q0 7.35-4.85 9.3v.13a5.8 5.8 0 013.81 3.31 16.65 16.65 0 011.11 6.67v8.29a31.41 31.41 0 00.14 3.27 8 8 0 00.67 2.46H372a10.74 10.74 0 01-.54-2.15 32.88 32.88 0 01-.13-3.64v-8.63c0-2.16-.35-3.67-1.05-4.52a4.44 4.44 0 00-3.61-1.28h-2.57v20.22h-7.41zm10.11 20.23a4.45 4.45 0 003.34-1.15 5.41 5.41 0 001.11-3.84V168a6.05 6.05 0 00-.91-3.71 3.45 3.45 0 00-2.87-1.14h-3.37v13.48zM383.85 156.44h20.23v6.75h-12.81v12.47h10.18v6.74h-10.18v14.49h12.81v6.74h-20.23zM406.37 156.44h7.48l4.86 36.61h.13l4.86-36.61h6.81l-7.15 47.19h-9.84zM434.08 156.44h7.41v47.19h-7.41zM447 156.44h20.23v6.75h-12.79v12.47h10.18v6.74h-10.18v14.49h12.81v6.74H447zM469.74 156.44h7.14l3.31 36.27h.13l3.51-36.27h8.09l3.5 36.27h.14l3.3-36.27h6.41l-4.79 47.19h-9.24l-3.37-31.82h-.13l-3.37 31.82h-9.84zM510.53 201.24c-1.85-2-2.77-5-2.77-8.8v-2.69h7V193q0 4.59 3.85 4.59a3.61 3.61 0 002.86-1.11 5.45 5.45 0 001-3.61 10 10 0 00-1.35-5.23 25 25 0 00-5-5.42 29.74 29.74 0 01-6.4-7.32 14.84 14.84 0 01-1.82-7.38q0-5.59 2.83-8.66t8.22-3.07q5.32 0 8.06 3.07c1.82 2 2.73 5 2.73 8.79v2h-7v-2.43a5.43 5.43 0 00-1-3.54 3.42 3.42 0 00-2.76-1.11q-3.71 0-3.71 4.52a8.88 8.88 0 001.38 4.78 26.42 26.42 0 005 5.4 27.55 27.55 0 016.4 7.35 16.26 16.26 0 011.75 7.75q0 5.79-2.86 8.9t-8.33 3.1q-5.31-.06-8.08-3.13zM543 156.44h7.48l4.86 36.61h.13l4.86-36.61h6.81l-7.15 47.19h-9.89zM570.66 156.44h20.22v6.75h-12.81v12.47h10.18v6.74h-10.18v14.49h12.81v6.74h-20.22zM595.13 156.44h11c3.82 0 6.6.89 8.36 2.67s2.63 4.5 2.63 8.19v2.9q0 7.35-4.86 9.3v.13a5.8 5.8 0 013.81 3.31 16.65 16.65 0 011.11 6.67v8.29a31.41 31.41 0 00.14 3.27 8 8 0 00.67 2.46h-7.55a10.74 10.74 0 01-.54-2.15 32.88 32.88 0 01-.13-3.64v-8.63c0-2.16-.35-3.67-1-4.52a4.42 4.42 0 00-3.6-1.28h-2.57v20.22h-7.41zm10.11 20.23a4.44 4.44 0 003.34-1.15 5.41 5.41 0 001.11-3.84V168a6 6 0 00-.91-3.71 3.44 3.44 0 00-2.86-1.14h-3.38v13.48zM622.3 156.44h11.32c3.69 0 6.45 1 8.3 3s2.76 4.88 2.76 8.7V192q0 5.73-2.76 8.7c-1.85 2-4.61 3-8.3 3H622.3zm11.19 40.45a3.6 3.6 0 002.8-1.08 5.12 5.12 0 001-3.5v-24.54a5.17 5.17 0 00-1-3.51 3.63 3.63 0 00-2.8-1.07h-3.78v33.7zM655.26 156.44h10l7.74 47.19h-7.41l-1.35-9.37v.14h-8.44l-1.34 9.23h-6.88zm8.09 31.56l-3.3-23.32h-.13L656.68 188zM676.57 156.44h11.32q5.54 0 8.29 3t2.77 8.7V192q0 5.73-2.77 8.7c-1.84 2-4.6 3-8.29 3h-11.32zm11.19 40.45a3.57 3.57 0 002.79-1.08 5.07 5.07 0 001-3.5v-24.54a5.11 5.11 0 00-1-3.51 3.59 3.59 0 00-2.79-1.07H684v33.7zM703.94 156.44h20.22v6.75h-12.81v12.47h10.18v6.74h-10.18v14.49h12.81v6.74h-20.22zM728.41 156.44h7.41v47.19h-7.41zM741.35 156.44h11q5.73 0 8.36 2.67t2.63 8.19v2.9q0 7.35-4.86 9.3v.13a5.8 5.8 0 013.81 3.31 16.65 16.65 0 011.11 6.67v8.29a31.41 31.41 0 00.14 3.27 8 8 0 00.67 2.46h-7.55a10.74 10.74 0 01-.54-2.15 32.88 32.88 0 01-.13-3.64v-8.63c0-2.16-.35-3.67-1.05-4.52a4.41 4.41 0 00-3.6-1.28h-2.56v20.22h-7.42zm10.11 20.23a4.42 4.42 0 003.34-1.15 5.41 5.41 0 001.11-3.84V168a6 6 0 00-.91-3.71 3.44 3.44 0 00-2.86-1.14h-3.37v13.48zM770.88 201.21q-2.89-3.11-2.9-8.77v-24.81q0-5.65 2.9-8.76t8.36-3.1c3.64 0 6.42 1 8.36 3.1s2.9 5 2.9 8.76v24.81q0 5.67-2.9 8.77c-1.94 2.07-4.72 3.1-8.36 3.1s-6.43-1.03-8.36-3.1zm12.2-8.29v-25.76q0-4.65-3.84-4.65c-2.56 0-3.85 1.55-3.85 4.65v25.76c0 3.1 1.29 4.65 3.85 4.65s3.84-1.57 3.84-4.65zM797 201.24c-1.85-2-2.77-5-2.77-8.8v-2.69h7V193c0 3.06 1.29 4.59 3.85 4.59a3.61 3.61 0 002.86-1.11 5.45 5.45 0 001-3.61 10 10 0 00-1.35-5.23 25 25 0 00-5-5.42 30 30 0 01-6.4-7.32 15 15 0 01-1.82-7.38q0-5.59 2.83-8.66t8.22-3.07q5.33 0 8.06 3.07c1.82 2 2.73 5 2.73 8.79v2h-7v-2.43a5.49 5.49 0 00-.94-3.54 3.43 3.43 0 00-2.77-1.11q-3.71 0-3.71 4.52a8.81 8.81 0 001.39 4.78 26 26 0 005 5.4 27.55 27.55 0 016.4 7.35 16.27 16.27 0 011.76 7.75q0 5.79-2.87 8.9c-1.91 2.07-4.68 3.1-8.33 3.1s-6.33-1.08-8.14-3.13z"/>
  <path class="cls-8" d="M372.53 259.87a6.47 6.47 0 01-1.39 4.45 4.69 4.69 0 01-3.7 1.57 4.64 4.64 0 01-3.75-1.62 6.62 6.62 0 01-1.36-4.4 6.52 6.52 0 011.4-4.45 4.75 4.75 0 013.71-1.58 4.7 4.7 0 013.7 1.58 6.5 6.5 0 011.39 4.45zm-2 0a5.49 5.49 0 00-.81-3.3 2.69 2.69 0 00-2.3-1.07 2.74 2.74 0 00-2.32 1.07 7 7 0 000 6.56 3 3 0 004.62 0 5.49 5.49 0 00.83-3.26zM384.09 259.56a7 7 0 01-1.37 4.55 4.24 4.24 0 01-3.45 1.69 5.21 5.21 0 01-1.5-.19 5.48 5.48 0 01-1.34-.61v4.79h-1.92v-15.63h1.92v1.19a6.75 6.75 0 011.59-1.08 4.21 4.21 0 011.9-.43 3.57 3.57 0 013.07 1.55 7.13 7.13 0 011.1 4.17zm-2 .22a6.17 6.17 0 00-.62-3 2.17 2.17 0 00-2-1.08 3.68 3.68 0 00-1.58.36 6.47 6.47 0 00-1.44.94v6.47a7.09 7.09 0 001.29.5 5.1 5.1 0 001.23.13 2.73 2.73 0 002.32-1.09 5.2 5.2 0 00.81-3.23zM388.18 252.24H386v-2h2.19zm-.18 13.34h-1.92v-11.42H388zM399.84 265.58h-1.92v-6.51a13.25 13.25 0 00-.08-1.46 3.11 3.11 0 00-.29-1.09 1.49 1.49 0 00-.65-.64 2.6 2.6 0 00-1.15-.21 3.35 3.35 0 00-1.48.38 7.87 7.87 0 00-1.48 1v8.53h-1.93v-11.42h1.93v1.26a7.59 7.59 0 011.69-1.17 3.9 3.9 0 011.77-.41 3.28 3.28 0 012.64 1.11 4.82 4.82 0 01.95 3.21zM404.64 252.24h-2.19v-2h2.19zm-.14 13.34h-1.92v-11.42h1.92zM416.72 259.87a6.47 6.47 0 01-1.39 4.45 4.69 4.69 0 01-3.7 1.57 4.64 4.64 0 01-3.75-1.62 6.62 6.62 0 01-1.36-4.4 6.52 6.52 0 011.4-4.45 4.75 4.75 0 013.71-1.58 4.7 4.7 0 013.7 1.58 6.5 6.5 0 011.39 4.45zm-1-11a4.13 4.13 0 01-.76 2.39 2.17 2.17 0 01-1.75.8 2.64 2.64 0 01-1-.19 3.18 3.18 0 01-.88-.61 6.77 6.77 0 00-.77-.64 1.23 1.23 0 00-.65-.22.73.73 0 00-.7.46 3.83 3.83 0 00-.24 1.24h-1.43a3.81 3.81 0 01.78-2.38 2.22 2.22 0 011.73-.8 2.39 2.39 0 011 .2 3.66 3.66 0 01.88.59 5.13 5.13 0 00.79.61 1.27 1.27 0 00.65.21.74.74 0 00.7-.46 3.06 3.06 0 00.25-1.2zm-1 11a5.49 5.49 0 00-.81-3.3 2.69 2.69 0 00-2.3-1.07 2.74 2.74 0 00-2.32 1.07 7 7 0 000 6.56 3 3 0 004.62 0 5.49 5.49 0 00.83-3.26zM423.65 265.84a5.62 5.62 0 01-4.23-1.54 6 6 0 01-1.51-4.37 6.47 6.47 0 011.46-4.44 4.87 4.87 0 013.82-1.65 5.28 5.28 0 011.89.31 3.69 3.69 0 011.43 1 4.38 4.38 0 01.94 1.6 7.08 7.08 0 01.32 2.31v1.05h-7.91a4.28 4.28 0 001 3 3.67 3.67 0 002.77 1.06 5.22 5.22 0 001.25-.15 5.68 5.68 0 001.1-.37 6.3 6.3 0 00.87-.45c.24-.15.44-.29.6-.41h.11v2.09l-.84.33a8.32 8.32 0 01-.9.32 10.22 10.22 0 01-1 .23 7.11 7.11 0 01-1.17.08zm2.25-7.25a5.23 5.23 0 00-.18-1.34 2.91 2.91 0 00-.47-.95 2.23 2.23 0 00-.86-.65 3.15 3.15 0 00-4.24 1.67 4.24 4.24 0 00-.29 1.27zM432.81 265.85a7.45 7.45 0 01-2.15-.3 10.44 10.44 0 01-1.65-.66v-2.16h.1c.17.13.36.28.58.43a5.37 5.37 0 00.89.49 6.77 6.77 0 001.08.4 4.14 4.14 0 001.22.18 5.07 5.07 0 001-.11 2.32 2.32 0 00.78-.27 1.74 1.74 0 00.51-.5 1.57 1.57 0 00.16-.8 1.32 1.32 0 00-.37-1 3.13 3.13 0 00-1.33-.59l-1-.21c-.39-.08-.76-.17-1.09-.27a3.45 3.45 0 01-1.9-1.17 3.07 3.07 0 01-.6-1.91 3.13 3.13 0 011.17-2.52 4.68 4.68 0 013.1-1 8.38 8.38 0 011.91.23 6.63 6.63 0 011.61.6v2h-.1a6.13 6.13 0 00-1.64-.92 5.28 5.28 0 00-1.82-.34 3.1 3.1 0 00-1.61.4 1.34 1.34 0 00-.65 1.21 1.38 1.38 0 00.39 1.07 3 3 0 001.24.58l1 .22c.35.07.72.15 1.11.25a3.64 3.64 0 011.91 1 3 3 0 01.63 2 3.35 3.35 0 01-.29 1.4 3 3 0 01-.85 1.13 4.42 4.42 0 01-1.39.78 6.21 6.21 0 01-1.95.36zM452 264.36l-.63.48a4.3 4.3 0 01-.76.5 5.78 5.78 0 01-1 .41 4.69 4.69 0 01-1.33.14 3.55 3.55 0 01-1.34-.26 3.44 3.44 0 01-1.12-.75 3.33 3.33 0 01-.73-1.16 3.79 3.79 0 01-.28-1.46 3.9 3.9 0 01.5-2 3.42 3.42 0 011.59-1.32 7.82 7.82 0 012.27-.61c.87-.11 1.81-.19 2.82-.25v-.37a2.43 2.43 0 00-.21-1.09 1.53 1.53 0 00-.57-.64 2.39 2.39 0 00-.9-.31 7.78 7.78 0 00-1.09-.07 6.94 6.94 0 00-1.57.2 10.41 10.41 0 00-1.8.57h-.11v-2c.35-.1.86-.21 1.52-.34a11 11 0 012-.18 9.29 9.29 0 012 .18 3.93 3.93 0 011.45.67 2.79 2.79 0 01.93 1.21 4.71 4.71 0 01.31 1.82v7.82H452zm0-1.6v-3.17l-1.74.17a9.2 9.2 0 00-1.69.31 3 3 0 00-1.27.72 1.8 1.8 0 00-.5 1.35 1.89 1.89 0 00.56 1.48 2.27 2.27 0 001.61.5 3.46 3.46 0 001.65-.39 6.76 6.76 0 001.38-.97zM465.49 265.58h-1.92v-1.27a8 8 0 01-1.69 1.18 3.84 3.84 0 01-1.77.4 4.09 4.09 0 01-1.41-.24 3 3 0 01-1.15-.78 3.56 3.56 0 01-.76-1.34 6.23 6.23 0 01-.27-2v-7.41h1.92v6.5a12.75 12.75 0 00.07 1.51 2.75 2.75 0 00.3 1 1.44 1.44 0 00.64.65 2.54 2.54 0 001.16.2 3.31 3.31 0 001.5-.4 6.55 6.55 0 001.46-1v-8.52h1.92zM477.07 265.58h-1.92v-1.17c-.3.25-.56.46-.78.62a3.8 3.8 0 01-.77.45 4.78 4.78 0 01-.85.31 4.4 4.4 0 01-1 .1 3.84 3.84 0 01-1.72-.39 3.56 3.56 0 01-1.35-1.13 5.79 5.79 0 01-.87-1.87 9.81 9.81 0 01-.3-2.55 7.78 7.78 0 01.39-2.6 6 6 0 011.07-1.92 4.69 4.69 0 011.51-1.17 4.28 4.28 0 011.85-.42 5.16 5.16 0 011.5.19 6.1 6.1 0 011.34.59v-5h1.92zm-1.92-2.79v-6.58a6.53 6.53 0 00-1.29-.48 5.34 5.34 0 00-1.23-.13 2.74 2.74 0 00-2.32 1.11 5.22 5.22 0 00-.84 3.2 6 6 0 00.65 3.08 2.2 2.2 0 002.06 1.07 3.64 3.64 0 001.52-.34 6 6 0 001.45-.93zM482 252.24h-2.19v-2H482zm-.14 13.34h-1.92v-11.42h1.92zM488.13 265.8a3.29 3.29 0 01-2.45-.89 3.9 3.9 0 01-.88-2.83v-6.33h-1.3v-1.59h1.3v-3.29h1.92v3.29h3.54v1.59h-3.54v6.77a2.22 2.22 0 00.24.88 1.09 1.09 0 00.56.54 2.74 2.74 0 001.05.17 3 3 0 00.91-.13c.29-.1.51-.17.64-.23h.11v1.72a7 7 0 01-1.1.24 6.53 6.53 0 01-1 .09zM498.06 264.36l-.63.48a4.3 4.3 0 01-.76.5 5.78 5.78 0 01-1 .41 4.64 4.64 0 01-1.33.14 3.55 3.55 0 01-1.34-.26 3.44 3.44 0 01-1.12-.75 3.48 3.48 0 01-.73-1.16 3.79 3.79 0 01-.28-1.46 3.9 3.9 0 01.5-2 3.47 3.47 0 011.59-1.32 7.82 7.82 0 012.27-.61c.87-.11 1.81-.19 2.82-.25v-.37a2.43 2.43 0 00-.21-1.09 1.53 1.53 0 00-.57-.64 2.28 2.28 0 00-.9-.31 7.78 7.78 0 00-1.09-.07 6.94 6.94 0 00-1.57.2 10.41 10.41 0 00-1.8.57h-.11v-2c.36-.1.86-.21 1.52-.34a11.1 11.1 0 012-.18 9.29 9.29 0 012 .18 3.93 3.93 0 011.45.67 2.79 2.79 0 01.93 1.21 4.71 4.71 0 01.31 1.82v7.82h-1.91zm0-1.6v-3.17l-1.73.17a9.17 9.17 0 00-1.7.31 2.9 2.9 0 00-1.26.72 1.76 1.76 0 00-.5 1.35 1.89 1.89 0 00.55 1.48 2.29 2.29 0 001.61.5 3.46 3.46 0 001.65-.39 6.76 6.76 0 001.38-.97zM511.46 265.58h-1.92v-1.17c-.3.25-.56.46-.78.62a3.47 3.47 0 01-.76.45 5.42 5.42 0 01-.85.31 4.46 4.46 0 01-1 .1 3.88 3.88 0 01-1.73-.39 3.61 3.61 0 01-1.34-1.13 5.4 5.4 0 01-.87-1.87 9.78 9.78 0 01-.31-2.55 7.78 7.78 0 01.39-2.6 6.21 6.21 0 011.08-1.92 4.54 4.54 0 011.5-1.17 4.29 4.29 0 011.86-.42 5.09 5.09 0 011.49.19 6.1 6.1 0 011.34.59v-5h1.92zm-1.92-2.79v-6.58a6.47 6.47 0 00-1.28-.48 5.34 5.34 0 00-1.23-.13 2.73 2.73 0 00-2.32 1.11 5.22 5.22 0 00-.84 3.2 6 6 0 00.64 3.08 2.22 2.22 0 002.07 1.07 3.68 3.68 0 001.52-.34 5.9 5.9 0 001.44-.93zM520.62 264.36l-.62.48a4.35 4.35 0 01-.77.5 6 6 0 01-1 .41 4.72 4.72 0 01-1.34.14 3.59 3.59 0 01-1.34-.26 3.35 3.35 0 01-1.85-1.91 4 4 0 01-.27-1.46 3.81 3.81 0 01.5-2 3.44 3.44 0 011.58-1.32 7.91 7.91 0 012.27-.61c.88-.11 1.82-.19 2.82-.25v-.37a2.44 2.44 0 00-.2-1.09 1.68 1.68 0 00-.57-.64 2.39 2.39 0 00-.9-.31 7.92 7.92 0 00-1.1-.07 6.93 6.93 0 00-1.56.2 10.41 10.41 0 00-1.8.57h-.11v-2c.35-.1.86-.21 1.52-.34a11 11 0 012-.18 9.32 9.32 0 012 .18 3.93 3.93 0 011.45.67 2.86 2.86 0 01.93 1.21 4.91 4.91 0 01.31 1.82v7.82h-1.92zm0-1.6v-3.17l-1.73.17a9 9 0 00-1.69.31 3 3 0 00-1.27.72 1.8 1.8 0 00-.5 1.35 1.92 1.92 0 00.55 1.48 2.31 2.31 0 001.62.5 3.42 3.42 0 001.64-.39 6.25 6.25 0 001.38-.97zM528.32 265.85a7.43 7.43 0 01-2.14-.3 10.44 10.44 0 01-1.65-.66v-2.16h.1c.17.13.36.28.58.43a5.66 5.66 0 00.88.49 7.58 7.58 0 001.08.4 4.19 4.19 0 001.22.18 5.08 5.08 0 001-.11 2.34 2.34 0 00.77-.27 1.79 1.79 0 00.52-.5 1.57 1.57 0 00.16-.8 1.36 1.36 0 00-.37-1 3.13 3.13 0 00-1.33-.59l-1-.21c-.39-.08-.76-.17-1.09-.27a3.48 3.48 0 01-1.91-1.17 3.33 3.33 0 01.58-4.43 4.66 4.66 0 013.1-1 8.38 8.38 0 011.91.23 6.63 6.63 0 011.61.6v2h-.1a6.13 6.13 0 00-1.64-.92 5.29 5.29 0 00-1.83-.34 3.06 3.06 0 00-1.6.4 1.32 1.32 0 00-.66 1.21 1.38 1.38 0 00.39 1.07 3.1 3.1 0 001.25.58l1 .22c.35.07.72.15 1.11.25a3.57 3.57 0 011.9 1 2.93 2.93 0 01.64 2 3.35 3.35 0 01-.29 1.4 3 3 0 01-.85 1.13 4.42 4.42 0 01-1.39.78 6.23 6.23 0 01-1.95.36zM550.71 259.56a7 7 0 01-1.37 4.55 4.24 4.24 0 01-3.45 1.69 5.21 5.21 0 01-1.5-.19 5.48 5.48 0 01-1.34-.61v4.79h-1.93v-15.63h1.93v1.19a6.75 6.75 0 011.59-1.08 4.21 4.21 0 011.9-.43 3.57 3.57 0 013.07 1.55 7.13 7.13 0 011.1 4.17zm-2 .22a6.17 6.17 0 00-.62-3 2.17 2.17 0 00-2-1.08 3.68 3.68 0 00-1.58.36 6.47 6.47 0 00-1.44.94v6.47a7.09 7.09 0 001.29.5 5.1 5.1 0 001.23.13 2.73 2.73 0 002.32-1.09 5.2 5.2 0 00.81-3.23zM562.1 259.87a6.52 6.52 0 01-1.39 4.45 4.71 4.71 0 01-3.71 1.57 4.64 4.64 0 01-3.74-1.62 6.62 6.62 0 01-1.37-4.4 6.47 6.47 0 011.41-4.45 5.13 5.13 0 017.41 0 6.55 6.55 0 011.39 4.45zm-2 0a5.49 5.49 0 00-.81-3.3 2.68 2.68 0 00-2.3-1.07 2.71 2.71 0 00-2.31 1.07 7 7 0 000 6.56 2.69 2.69 0 002.31 1.11 2.72 2.72 0 002.3-1.09 5.49 5.49 0 00.82-3.28zM570.12 256.22H570a2.21 2.21 0 00-.46-.08H569a3.74 3.74 0 00-1.55.34 5 5 0 00-1.45 1v8.11h-1.92v-11.43H566v1.69a8.31 8.31 0 011.84-1.31 3.34 3.34 0 011.51-.38h.45l.33.05z"/>
  <path class="cls-9" d="M591.78 278.51l5.22-29.73h9.55c3.23 0 5.63.83 7.2 2.47s2.1 3.87 1.6 6.7a9.12 9.12 0 01-2 4.45 11 11 0 01-4.28 2.93l3.56 13.18h-8.79L602.11 267l-2 11.51zM604.24 255l-1.24 7a3.88 3.88 0 002.62-.89 4.58 4.58 0 001.24-2.65 3.73 3.73 0 00-.26-2.66 2.24 2.24 0 00-2-.89zM632.07 271.22a11 11 0 01-3.86 5.77 10.45 10.45 0 01-6.51 2.11q-4.4 0-6.28-2.84c-1.25-1.9-1.57-4.59-.95-8.1a14.9 14.9 0 013.84-8.18 9.85 9.85 0 017.23-2.91q4.71 0 6.57 2.59c1.25 1.72 1.56 4.32.95 7.79q-.1.62-.18.93a4.45 4.45 0 01-.15.58h-11l-.05.28a7.3 7.3 0 00-.06 3.3 1.43 1.43 0 001.52 1 2.18 2.18 0 001.51-.57 4.36 4.36 0 001.1-1.75zm-9.75-5.76h4.45a4.7 4.7 0 00-.09-2.66 1.51 1.51 0 00-1.52-.88 2 2 0 00-1.57.86 8.48 8.48 0 00-1.27 2.68M645.09 278.18a7.86 7.86 0 01-1.88.69 9.88 9.88 0 01-2.19.23 6.31 6.31 0 01-5.83-2.94q-1.8-2.94-.9-8.08a14.84 14.84 0 013.81-8 9.31 9.31 0 016.89-3 9.64 9.64 0 012 .2 6.55 6.55 0 011.67.63l-1.13 6.4a2.16 2.16 0 00-.73-.36 3.32 3.32 0 00-.86-.11 2.62 2.62 0 00-2.08 1.14 6.89 6.89 0 00-1.25 3.11 5.16 5.16 0 00.12 3 1.76 1.76 0 001.76 1 3 3 0 00.8-.11 7.89 7.89 0 00.94-.31zM647.42 278.51l5.71-32.43h7.56l-5.72 32.43h-7.55zM669.26 278.51l.41-2.3a10.84 10.84 0 01-2.7 2.2 5.78 5.78 0 01-2.72.69 4.41 4.41 0 01-4.36-2.9c-.84-1.94-.95-4.64-.33-8.12a18.18 18.18 0 013.17-8.13 6.68 6.68 0 015.4-2.88 4.55 4.55 0 012.49.68 6.18 6.18 0 011.92 2.17l.4-2.26h7.55l-3.68 20.85zm-2-10.43a9.1 9.1 0 00-.13 3.34c.17.75.56 1.12 1.18 1.12a1.9 1.9 0 001.59-1.15 10 10 0 001.07-3.31 9.05 9.05 0 00.11-3.35c-.19-.76-.58-1.15-1.19-1.15a1.91 1.91 0 00-1.57 1.15 10.14 10.14 0 00-1.06 3.35M679.58 278.51l3.68-20.85h7.24l-.54 3.09a9.4 9.4 0 013-2.64 7.26 7.26 0 013.5-.86 4.2 4.2 0 012.81.87 3.92 3.92 0 011.23 2.63 8.16 8.16 0 012.71-2.64 6.9 6.9 0 013.45-.86 3.84 3.84 0 013.38 1.43 5.46 5.46 0 01.52 4.15l-2.76 15.68h-7.6l2.14-12.14a2.17 2.17 0 00-.09-1.44 1 1 0 00-1-.47 1.42 1.42 0 00-1.12.54 3.14 3.14 0 00-.63 1.5l-2.11 12h-7.49l2.1-12.13a2.17 2.17 0 00-.09-1.44 1 1 0 00-1-.47 1.48 1.48 0 00-1.15.54 3.05 3.05 0 00-.64 1.5l-2.12 12zM729.11 271.22a11 11 0 01-3.85 5.77 10.49 10.49 0 01-6.51 2.11c-2.93 0-5-1-6.28-2.84s-1.57-4.59-1-8.1a14.9 14.9 0 013.85-8.18 9.82 9.82 0 017.23-2.91c3.14 0 5.32.86 6.57 2.59s1.56 4.32.94 7.79c-.07.41-.13.72-.17.93a4.45 4.45 0 01-.15.58h-11v.28a7.3 7.3 0 00-.06 3.3 1.45 1.45 0 001.53 1 2.2 2.2 0 001.51-.57 4.35 4.35 0 001.09-1.75zm-9.75-5.76h4.46a4.7 4.7 0 00-.09-2.66 1.52 1.52 0 00-1.52-.88 2 2 0 00-1.57.86 8.69 8.69 0 00-1.28 2.68"/>
  <path class="cls-10" d="M728.44 278.51l11.76-29.73h9.34l1.25 29.73h-8.08l.14-4.38H738l-1.41 4.38zm11.38-10.38h3.3l.27-11zM765.58 283.31l-2.45-4.25a4.16 4.16 0 00-.44 0h-.44c-3.57 0-6.09-1.35-7.57-4s-1.79-6.49-.92-11.4 2.51-8.72 4.93-11.42a11.54 11.54 0 018.93-4.06q5.26 0 7.46 4.05t.89 11.43a27.94 27.94 0 01-2.28 7.39 17.39 17.39 0 01-3.91 5.29l3 3.79zm-3.4-19.85a22 22 0 00-.51 6.33c.21 1.14.82 1.72 1.84 1.72a2.71 2.71 0 002.4-1.69 23.76 23.76 0 001.72-6.36 21.79 21.79 0 00.53-6.37 1.74 1.74 0 00-1.81-1.69 2.74 2.74 0 00-2.44 1.71 23.89 23.89 0 00-1.73 6.35M777.48 267.88l3.37-19.1h8.29l-3.51 19.89a2.91 2.91 0 00.13 1.93 1.41 1.41 0 001.33.62 2.07 2.07 0 001.58-.62 3.89 3.89 0 00.81-1.93l3.5-19.89h8.33l-3.37 19.1q-1 5.82-4 8.52c-2 1.8-4.72 2.7-8.27 2.7s-6-.9-7.27-2.7-1.63-4.64-.95-8.52M799.49 278.51l5.24-29.73h8.3l-5.24 29.73h-8.3z"/>
</svg>
