<svg xmlns="http://www.w3.org/2000/svg" xmlns:xlink="http://www.w3.org/1999/xlink" width="23" height="21" viewBox="0 0 23 21"><defs><style>.a{fill:#fff;opacity:0.46;}.b{clip-path:url(#a);}.c,.e{fill:#fec605;}.c{fill-rule:evenodd;}.d,.e{stroke:none;}</style><clipPath id="a"><rect class="a" width="23" height="21" transform="translate(804 310)"/></clipPath></defs><g class="b" transform="translate(-804 -310)"><g class="c" transform="translate(806.943 312.037)"><path class="d" d="M 13.446213722229 15.87674522399902 L 8.819182395935059 13.03923225402832 L 8.557792663574219 12.87894248962402 L 8.296402931213379 13.03923225402832 L 3.669776916503906 15.87647724151611 L 4.895002841949463 10.51250171661377 L 4.961212635040283 10.22261238098145 L 4.738112449645996 10.02602195739746 L 0.632351279258728 6.408127307891846 L 6.035602569580078 5.938271999359131 L 6.337512493133545 5.912022113800049 L 6.453922748565674 5.632212162017822 L 8.557793617248535 0.5753670334815979 L 10.66166305541992 5.632212162017822 L 10.77807235717773 5.912022113800049 L 11.07999229431152 5.938271999359131 L 16.47953605651855 6.407778739929199 L 12.37762260437012 10.02620220184326 L 12.15476226806641 10.22279262542725 L 12.22093296051025 10.51250171661377 L 13.446213722229 15.87674522399902 Z"/><path class="e" d="M 8.557796478271484 1.877022743225098 L 6.915562629699707 5.824281692504883 L 6.682743072509766 6.383882522583008 L 6.078912734985352 6.436391830444336 L 1.839109420776367 6.805071830749512 L 5.068673133850098 9.650882720947266 L 5.514872550964355 10.0440616607666 L 5.382442474365234 10.62384223937988 L 4.421991348266602 14.82866764068604 L 8.035022735595703 12.61300182342529 L 8.557792663574219 12.29241180419922 L 9.080562591552734 12.61300182342529 L 12.69400119781494 14.82891750335693 L 11.73349285125732 10.62384223937988 L 11.60114288330078 10.0444221496582 L 12.04685211181641 9.651242256164551 L 15.27362442016602 6.804807662963867 L 11.03667259216309 6.436391830444336 L 10.43284225463867 6.383892059326172 L 10.20002269744873 5.824281692504883 L 8.557796478271484 1.877022743225098 M 8.557398796081543 -0.03675270080566406 C 8.72035026550293 -0.03675270080566406 8.883432388305664 0.0541229248046875 8.95809268951416 0.2358722686767578 L 11.1233024597168 5.440152168273926 L 16.65813255310059 5.921422004699707 C 17.04090309143066 5.956122398376465 17.1989917755127 6.445812225341797 16.9045524597168 6.699592590332031 L 12.70838260650635 10.40116214752197 L 13.96502304077148 15.90269184112549 C 14.03456401824951 16.20019721984863 13.80240821838379 16.44956588745117 13.54125308990479 16.44956588745117 C 13.46671295166016 16.44956588745117 13.38983154296875 16.42926216125488 13.31690216064453 16.38396263122559 L 8.557792663574219 13.46547222137451 L 3.79868221282959 16.38396263122559 C 3.726332664489746 16.42794418334961 3.649998664855957 16.44773101806641 3.575985908508301 16.44773101806641 C 3.314370155334473 16.44773101806641 3.081234931945801 16.20078086853027 3.150912284851074 15.90269184112549 L 4.407552719116211 10.40116214752197 L 0.2068328857421875 6.699592590332031 C -0.08340644836425781 6.440901756286621 0.07468223571777344 5.956122398376465 0.4578018188476563 5.921422004699707 L 5.992282867431641 5.440152168273926 L 8.157492637634277 0.2358722686767578 C 8.231627464294434 0.0541229248046875 8.394447326660156 -0.03675270080566406 8.557398796081543 -0.03675270080566406 Z"/></g></g></svg>