<svg xmlns="http://www.w3.org/2000/svg" xmlns:xlink="http://www.w3.org/1999/xlink" width="23" height="21" viewBox="0 0 23 21">
  <defs>
    <clipPath id="clip-path">
      <rect id="Retângulo_2" data-name="Retângulo 2" width="23" height="21" transform="translate(804 310)" fill="#fff" opacity="0.46"/>
    </clipPath>
  </defs>
  <g id="star-contorno" transform="translate(-804 -310)" clip-path="url(#clip-path)">
    <g id="Agrupar_2" data-name="Agrupar 2" transform="translate(806.943 312.037)">
      <path id="Caminho_3" data-name="Caminho 3" d="M13.446,15.877,8.819,13.039l-.261-.16-.261.16L3.67,15.877l1.225-5.364.066-.29-.223-.2L.632,6.408l5.4-.47.3-.026.116-.28L8.558.575l2.1,5.057.116.28.3.026,5.4.47-4.1,3.618-.223.2.066.29Z" fill="rgba(255,255,255,0)" fill-rule="evenodd"/>
      <path id="Caminho_4" data-name="Caminho 4" d="M8.558,1.877,6.916,5.824l-.233.56-.6.053-4.24.369,3.23,2.846.446.393-.132.58-.96,4.2,3.613-2.216.523-.321.523.321,3.613,2.216-.961-4.205-.132-.579.446-.393L15.274,6.8l-4.237-.368-.6-.052-.233-.56L8.558,1.877m0-1.914a.428.428,0,0,1,.4.273l2.165,5.2,5.535.481A.446.446,0,0,1,16.9,6.7l-4.2,3.7,1.257,5.5a.443.443,0,0,1-.424.547.422.422,0,0,1-.224-.066L8.558,13.465,3.8,16.384a.427.427,0,0,1-.223.064.441.441,0,0,1-.425-.545l1.257-5.5L.207,6.7a.447.447,0,0,1,.251-.778L5.992,5.44,8.157.236A.427.427,0,0,1,8.557-.037Z" fill="#fec605" fill-rule="evenodd"/>
    </g>
  </g>
</svg>
