<svg id="Layer_1" data-name="Layer 1" xmlns="http://www.w3.org/2000/svg" xmlns:xlink="http://www.w3.org/1999/xlink" viewBox="0 0 893 359">
  <defs>
    <linearGradient id="Gradiente_sem_nome_21" x1="343.16" y1="363.26" x2="200.3" y2="182.45" gradientUnits="userSpaceOnUse">
      <stop offset="0"/>
      <stop offset="1" stop-opacity="0"/>
    </linearGradient>
    <linearGradient id="Gradiente_sem_nome_21-2" x1="281.75" y1="438.06" x2="124.38" y2="238.89" xlink:href="#Gradiente_sem_nome_21"/>
    <style>
      .cls-5{fill:#fff}.cls-8{fill:#90be21}.cls-9{fill:#007841}
    </style>
  </defs>
  <rect x="282.45" y="128.03" width="552.96" height="102.94" rx="26.39" fill="#92c021"/>
  <path fill="#007d41" d="M340.4 179.49l-14.25 11.13 12.11 13.44-15.97 8.47 9.59 15.34-17.2 5.57 6.78 16.76-17.9 2.51 3.77 17.69-18.08-.64.65 18.06-17.68-3.76-2.52 17.91-16.77-6.8-5.57 17.22-15.32-9.6-8.5 15.97-13.41-12.11L199 320.91l-11.12-14.26-13.43 12.11-8.49-15.97-15.33 9.6-5.57-17.22-16.78 6.8-2.49-17.91-17.68 3.76.63-18.06-18.08.64 3.77-17.69-17.9-2.51 6.78-16.76-17.19-5.57 9.58-15.34-15.97-8.47 12.11-13.44-14.25-11.13 14.25-11.11-12.11-13.44 15.97-8.47-9.58-15.34 17.19-5.58-6.78-16.75 17.9-2.51-3.77-17.69 18.08.64-.63-18.06 17.68 3.76 2.49-17.91 16.78 6.78 5.57-17.2 15.33 9.59 8.49-15.96 13.43 12.09L199 38.09l11.13 14.24 13.41-12.09 8.5 15.96 15.32-9.59 5.57 17.2 16.77-6.78 2.52 17.91 17.68-3.76-.65 18.06 18.08-.64-3.77 17.69 17.9 2.51-6.78 16.75 17.2 5.58-9.59 15.34 15.97 8.47-12.11 13.44 14.25 11.11z"/>
  <path d="M201.1 87c-53.41-1-97.19 43.05-95.95 96.45a93.87 93.87 0 0024.64 61.34.19.19 0 010 .21l-12 30a.21.21 0 00.28.26l29.55-15.07a.18.18 0 01.19 0A94.25 94.25 0 10201.1 87z" stroke-linecap="round" stroke-width="6" stroke="#fff" stroke-miterlimit="10" fill="#92c021"/>
  <path d="M258.34 116.57a85 85 0 0122.58 57.65c0 47.82-39.82 86.59-88.93 86.59a89.93 89.93 0 01-59.2-22 89.78 89.78 0 0066.35 28.95c49.11 0 88.92-38.77 88.92-86.59a85.41 85.41 0 00-29.72-64.6z" fill="url(#Gradiente_sem_nome_21)" opacity=".61"/>
  <path class="cls-5" d="M165.91 173.58a4.74 4.74 0 009.48 0V162H187a4.74 4.74 0 000-9.47h-11.6v-11.6a4.74 4.74 0 10-9.48 0v11.6h-11.6a4.74 4.74 0 100 9.47h11.59zM211.48 162h32.66a4.74 4.74 0 100-9.47h-32.66a4.74 4.74 0 100 9.47zM231.68 196.8a4.74 4.74 0 00-9.31-1.82 24.55 24.55 0 01-48.18 0 4.74 4.74 0 00-9.3 1.82 34 34 0 0066.79 0z"/>
  <path d="M127.16 242.89c.73.82 1.49 1.63 2.25 2.42l.15-.36c-.81-.67-1.56-1.36-2.4-2.06z" fill="url(#Gradiente_sem_nome_21-2)" opacity=".61"/>
  <circle cx="199" cy="179.5" r="120.15" fill="none" stroke-width="5.28" stroke="#fff" stroke-miterlimit="10"/>
  <path class="cls-5" d="M356.69 156.44h11q5.71 0 8.36 2.67t2.62 8.19v2.9q0 7.35-4.85 9.3v.13a5.8 5.8 0 013.81 3.31 16.65 16.65 0 011.11 6.67v8.29a31.41 31.41 0 00.14 3.27 8 8 0 00.67 2.46H372a10.74 10.74 0 01-.54-2.15 32.88 32.88 0 01-.13-3.64v-8.63c0-2.16-.35-3.67-1.05-4.52a4.44 4.44 0 00-3.61-1.28h-2.57v20.22h-7.41zm10.11 20.23a4.45 4.45 0 003.34-1.15 5.41 5.41 0 001.11-3.84V168a6 6 0 00-.91-3.71 3.45 3.45 0 00-2.87-1.14h-3.37v13.48zM383.86 156.44h20.22v6.75h-12.81v12.47h10.18v6.74h-10.18v14.49h12.81v6.74h-20.22zM406.37 156.44h7.48l4.86 36.61h.13l4.86-36.61h6.81l-7.15 47.19h-9.84zM434.08 156.44h7.41v47.19h-7.41zM447 156.44h20.23v6.75h-12.79v12.47h10.18v6.74h-10.18v14.49h12.81v6.74H447zM469.74 156.44h7.14l3.31 36.27h.13l3.51-36.27h8.09l3.5 36.27h.14l3.3-36.27h6.41l-4.79 47.19h-9.24l-3.37-31.82h-.13l-3.37 31.82h-9.84zM510.53 201.24c-1.85-2-2.77-5-2.77-8.8v-2.69h7V193q0 4.59 3.85 4.59a3.61 3.61 0 002.86-1.11 5.45 5.45 0 001-3.61 10 10 0 00-1.35-5.23 25 25 0 00-5-5.42 29.74 29.74 0 01-6.4-7.32 14.84 14.84 0 01-1.82-7.38q0-5.59 2.83-8.66t8.22-3.07q5.32 0 8.06 3.07c1.82 2 2.73 5 2.73 8.79v2h-7v-2.43a5.43 5.43 0 00-1-3.54 3.42 3.42 0 00-2.76-1.11q-3.71 0-3.71 4.52a8.88 8.88 0 001.38 4.78 26.42 26.42 0 005 5.4 27.55 27.55 0 016.4 7.35 16.26 16.26 0 011.75 7.75q0 5.79-2.86 8.9t-8.33 3.1q-5.31-.06-8.08-3.13zM543 156.44h7.48l4.86 36.61h.13l4.86-36.61h6.81l-7.15 47.19h-9.89zM570.66 156.44h20.22v6.75h-12.81v12.47h10.18v6.74h-10.18v14.49h12.81v6.74h-20.22zM595.13 156.44h11c3.82 0 6.6.89 8.36 2.67s2.63 4.5 2.63 8.19v2.9q0 7.35-4.86 9.3v.13a5.8 5.8 0 013.81 3.31 16.65 16.65 0 011.11 6.67v8.29a31.41 31.41 0 00.14 3.27 8 8 0 00.67 2.46h-7.55a10.74 10.74 0 01-.54-2.15 32.88 32.88 0 01-.13-3.64v-8.63c0-2.16-.35-3.67-1-4.52a4.42 4.42 0 00-3.6-1.28h-2.57v20.22h-7.41zm10.11 20.23a4.44 4.44 0 003.34-1.15 5.41 5.41 0 001.11-3.84V168a6 6 0 00-.91-3.71 3.44 3.44 0 00-2.86-1.14h-3.38v13.48zM622.3 156.44h11.32c3.69 0 6.45 1 8.3 3s2.76 4.88 2.76 8.7V192q0 5.73-2.76 8.7c-1.85 2-4.61 3-8.3 3H622.3zm11.19 40.45a3.6 3.6 0 002.8-1.08 5.12 5.12 0 001-3.5v-24.54a5.17 5.17 0 00-1-3.51 3.63 3.63 0 00-2.8-1.07h-3.78v33.7zM655.26 156.44h10l7.74 47.19h-7.41l-1.35-9.37v.14h-8.44l-1.34 9.23h-6.88zm8.09 31.56l-3.3-23.32h-.13L656.68 188zM676.57 156.44h11.32q5.54 0 8.29 3t2.77 8.7V192q0 5.73-2.77 8.7c-1.84 2-4.6 3-8.29 3h-11.32zm11.19 40.45a3.57 3.57 0 002.79-1.08 5.07 5.07 0 001-3.5v-24.54a5.11 5.11 0 00-1-3.51 3.59 3.59 0 00-2.79-1.07H684v33.7zM703.94 156.44h20.22v6.75h-12.81v12.47h10.18v6.74h-10.18v14.49h12.81v6.74h-20.22zM728.41 156.44h7.41v47.19h-7.41zM741.35 156.44h11q5.73 0 8.36 2.67t2.63 8.19v2.9q0 7.35-4.86 9.3v.13a5.8 5.8 0 013.81 3.31 16.65 16.65 0 011.11 6.67v8.29a31.41 31.41 0 00.14 3.27 8 8 0 00.67 2.46h-7.55a10.74 10.74 0 01-.54-2.15 32.88 32.88 0 01-.13-3.64v-8.63c0-2.16-.35-3.67-1.05-4.52a4.41 4.41 0 00-3.6-1.28h-2.56v20.22h-7.42zm10.11 20.23a4.42 4.42 0 003.34-1.15 5.41 5.41 0 001.11-3.84V168a6 6 0 00-.91-3.71 3.44 3.44 0 00-2.86-1.14h-3.37v13.48zM770.88 201.21q-2.89-3.11-2.9-8.77v-24.81q0-5.65 2.9-8.76t8.36-3.1c3.64 0 6.42 1 8.36 3.1s2.9 5 2.9 8.76v24.81q0 5.67-2.9 8.77c-1.94 2.07-4.72 3.1-8.36 3.1s-6.43-1.03-8.36-3.1zm12.2-8.29v-25.76q0-4.65-3.84-4.65c-2.56 0-3.85 1.55-3.85 4.65v25.76c0 3.1 1.29 4.65 3.85 4.65s3.84-1.57 3.84-4.65zM797 201.24c-1.85-2-2.77-5-2.77-8.8v-2.69h7V193c0 3.06 1.29 4.59 3.85 4.59a3.61 3.61 0 002.86-1.11 5.45 5.45 0 001-3.61 10 10 0 00-1.35-5.23 25 25 0 00-5-5.42 30 30 0 01-6.4-7.32 15 15 0 01-1.82-7.38q0-5.59 2.83-8.66t8.22-3.07q5.33 0 8.06 3.07c1.82 2 2.73 5 2.73 8.79v2h-7v-2.43a5.49 5.49 0 00-.94-3.54 3.43 3.43 0 00-2.77-1.11q-3.71 0-3.71 4.52a8.81 8.81 0 001.39 4.78 26 26 0 005 5.4 27.55 27.55 0 016.4 7.35 16.27 16.27 0 011.76 7.75q0 5.79-2.87 8.9c-1.91 2.07-4.68 3.1-8.33 3.1s-6.33-1.08-8.14-3.13z"/>
  <path class="cls-8" d="M591.78 278.51l5.22-29.73h9.55c3.23 0 5.63.83 7.2 2.47s2.1 3.87 1.6 6.7a9.12 9.12 0 01-2 4.45 11 11 0 01-4.28 2.93l3.56 13.18h-8.79L602.11 267l-2 11.51zM604.24 255l-1.24 7a3.88 3.88 0 002.62-.89 4.58 4.58 0 001.24-2.65 3.73 3.73 0 00-.26-2.66 2.24 2.24 0 00-2-.89zM632.07 271.22a11 11 0 01-3.86 5.77 10.45 10.45 0 01-6.51 2.11q-4.4 0-6.28-2.84c-1.25-1.9-1.57-4.59-.95-8.1a14.9 14.9 0 013.84-8.18 9.85 9.85 0 017.23-2.91q4.71 0 6.57 2.59c1.25 1.72 1.56 4.32.95 7.79q-.1.62-.18.93a4.45 4.45 0 01-.15.58h-11l-.05.28a7.3 7.3 0 00-.06 3.3 1.43 1.43 0 001.52 1 2.18 2.18 0 001.51-.57 4.36 4.36 0 001.1-1.75zm-9.75-5.76h4.45a4.7 4.7 0 00-.09-2.66 1.51 1.51 0 00-1.52-.88 2 2 0 00-1.57.86 8.48 8.48 0 00-1.27 2.68M645.09 278.18a7.86 7.86 0 01-1.88.69 9.88 9.88 0 01-2.19.23 6.31 6.31 0 01-5.83-2.94q-1.8-2.94-.9-8.08a14.84 14.84 0 013.81-8 9.31 9.31 0 016.89-3 9.64 9.64 0 012 .2 6.55 6.55 0 011.67.63l-1.13 6.4a2.16 2.16 0 00-.73-.36 3.32 3.32 0 00-.86-.11 2.62 2.62 0 00-2.08 1.14 6.89 6.89 0 00-1.25 3.11 5.16 5.16 0 00.12 3 1.76 1.76 0 001.76 1 3 3 0 00.8-.11 7.89 7.89 0 00.94-.31zM647.42 278.51l5.71-32.43h7.56l-5.72 32.43h-7.55zM669.26 278.51l.41-2.3a10.84 10.84 0 01-2.7 2.2 5.78 5.78 0 01-2.72.69 4.41 4.41 0 01-4.36-2.9c-.84-1.94-.95-4.64-.33-8.12a18.18 18.18 0 013.17-8.13 6.68 6.68 0 015.4-2.88 4.55 4.55 0 012.49.68 6.18 6.18 0 011.92 2.17l.4-2.26h7.55l-3.68 20.85zm-2-10.43a9.1 9.1 0 00-.13 3.34c.17.75.56 1.12 1.18 1.12a1.9 1.9 0 001.59-1.15 10 10 0 001.07-3.31 9.05 9.05 0 00.11-3.35c-.19-.76-.58-1.15-1.19-1.15a1.91 1.91 0 00-1.57 1.15 10.14 10.14 0 00-1.06 3.35M679.58 278.51l3.68-20.85h7.24l-.54 3.09a9.4 9.4 0 013-2.64 7.26 7.26 0 013.5-.86 4.2 4.2 0 012.81.87 3.92 3.92 0 011.23 2.63 8.16 8.16 0 012.71-2.64 6.9 6.9 0 013.45-.86 3.84 3.84 0 013.38 1.43 5.46 5.46 0 01.52 4.15l-2.76 15.68h-7.6l2.14-12.14a2.17 2.17 0 00-.09-1.44 1 1 0 00-1-.47 1.42 1.42 0 00-1.12.54 3.14 3.14 0 00-.63 1.5l-2.11 12h-7.49l2.1-12.13a2.17 2.17 0 00-.09-1.44 1 1 0 00-1-.47 1.48 1.48 0 00-1.15.54 3.05 3.05 0 00-.64 1.5l-2.12 12zM729.11 271.22a11 11 0 01-3.85 5.77 10.49 10.49 0 01-6.51 2.11c-2.93 0-5-1-6.28-2.84s-1.57-4.59-1-8.1a14.9 14.9 0 013.85-8.18 9.82 9.82 0 017.23-2.91c3.14 0 5.32.86 6.57 2.59s1.56 4.32.94 7.79c-.07.41-.13.72-.17.93a4.45 4.45 0 01-.15.58h-11v.28a7.3 7.3 0 00-.06 3.3 1.45 1.45 0 001.53 1 2.2 2.2 0 001.51-.57 4.35 4.35 0 001.09-1.75zm-9.75-5.76h4.46a4.7 4.7 0 00-.09-2.66 1.52 1.52 0 00-1.52-.88 2 2 0 00-1.57.86 8.69 8.69 0 00-1.28 2.68"/>
  <path class="cls-9" d="M728.44 278.51l11.76-29.73h9.34l1.25 29.73h-8.08l.14-4.38H738l-1.41 4.38zm11.38-10.38h3.3l.27-11zM765.58 283.31l-2.45-4.25a4.16 4.16 0 00-.44 0h-.44c-3.57 0-6.09-1.35-7.57-4s-1.79-6.49-.92-11.4 2.51-8.72 4.93-11.42a11.54 11.54 0 018.93-4.06q5.26 0 7.46 4.05t.89 11.43a27.94 27.94 0 01-2.28 7.39 17.39 17.39 0 01-3.91 5.29l3 3.79zm-3.4-19.85a22 22 0 00-.51 6.33c.21 1.14.82 1.72 1.84 1.72a2.71 2.71 0 002.4-1.69 23.76 23.76 0 001.72-6.36 21.79 21.79 0 00.53-6.37 1.74 1.74 0 00-1.81-1.69 2.74 2.74 0 00-2.44 1.71 23.89 23.89 0 00-1.73 6.35M777.48 267.88l3.37-19.1h8.29l-3.51 19.89a2.91 2.91 0 00.13 1.93 1.41 1.41 0 001.33.62 2.07 2.07 0 001.58-.62 3.89 3.89 0 00.81-1.93l3.5-19.89h8.33l-3.37 19.1q-1 5.82-4 8.52c-2 1.8-4.72 2.7-8.27 2.7s-6-.9-7.27-2.7-1.63-4.64-.95-8.52M799.49 278.51l5.24-29.73h8.3l-5.24 29.73h-8.3z"/>
</svg>
