<svg id="Layer_1" data-name="Layer 1" xmlns="http://www.w3.org/2000/svg" xmlns:xlink="http://www.w3.org/1999/xlink" viewBox="0 0 402 359">
  <defs>
    <linearGradient id="Gradiente_sem_nome_21" x1="301.54" y1="306.76" x2="201.66" y2="180.34" gradientUnits="userSpaceOnUse">
      <stop offset="0"/>
      <stop offset="1" stop-opacity="0"/>
    </linearGradient>
    <linearGradient id="Gradiente_sem_nome_21-2" x1="258.61" y1="359.05" x2="148.59" y2="219.8" xlink:href="#Gradiente_sem_nome_21"/>
    <style>
      .cls-4{fill:#fff}
    </style>
  </defs>
  <path fill="#007d41" d="M340.4 179.49l-14.25 11.13 12.11 13.44-15.97 8.47 9.59 15.34-17.2 5.57 6.78 16.76-17.9 2.51 3.77 17.69-18.08-.64.65 18.06-17.68-3.76-2.52 17.91-16.77-6.8-5.57 17.22-15.32-9.6-8.5 15.97-13.41-12.11L199 320.91l-11.12-14.26-13.43 12.11-8.49-15.97-15.33 9.6-5.57-17.22-16.78 6.8-2.49-17.91-17.68 3.76.63-18.06-18.08.64 3.77-17.69-17.9-2.51 6.78-16.76-17.19-5.57 9.58-15.34-15.97-8.47 12.11-13.44-14.25-11.13 14.25-11.11-12.11-13.44 15.97-8.47-9.58-15.34 17.19-5.58-6.78-16.75 17.9-2.51-3.77-17.69 18.08.64-.63-18.06 17.68 3.76 2.49-17.91 16.78 6.78 5.57-17.2 15.33 9.59 8.49-15.96 13.43 12.09L199 38.09l11.13 14.24 13.41-12.09 8.5 15.96 15.32-9.59 5.57 17.2 16.77-6.78 2.52 17.91 17.68-3.76-.65 18.06 18.08-.64-3.77 17.69 17.9 2.51-6.78 16.75 17.2 5.58-9.59 15.34 15.97 8.47-12.11 13.44 14.25 11.11z"/>
  <path d="M202.22 113.62a65.89 65.89 0 00-49.85 110.32.16.16 0 010 .15L144 245a.14.14 0 00.2.18l20.65-10.53a.14.14 0 01.14 0 65.89 65.89 0 1037.21-121.07z" stroke="#fff" stroke-miterlimit="10" fill="#92c021" stroke-linecap="round" stroke-width="3.17"/>
  <path d="M242.24 134.29a59.39 59.39 0 0115.76 40.3c0 33.43-27.84 60.54-62.17 60.54a62.87 62.87 0 01-41.39-15.37A62.75 62.75 0 00200.85 240c34.34 0 62.17-27.1 62.17-60.54a59.69 59.69 0 00-20.78-45.17z" fill="url(#Gradiente_sem_nome_21)" opacity=".61"/>
  <path class="cls-4" d="M177.62 174.14a3.32 3.32 0 006.63 0V166h8.11a3.31 3.31 0 000-6.62h-8.11v-8.08a3.32 3.32 0 00-6.63 0v8.11h-8.1a3.31 3.31 0 000 6.62h8.1zM209.48 166h22.84a3.31 3.31 0 000-6.62h-22.84a3.31 3.31 0 000 6.62zM223.6 190.38a3.31 3.31 0 00-6.5-1.28 17.17 17.17 0 01-33.69 0 3.31 3.31 0 00-6.5 1.28 23.79 23.79 0 0046.69 0z"/>
  <path d="M150.53 222.6c.51.57 1 1.14 1.57 1.69l.1-.25c-.56-.47-1.12-.95-1.67-1.44z" fill="url(#Gradiente_sem_nome_21-2)" opacity=".61"/>
  <circle cx="199" cy="179.5" r="120.15" fill="none" stroke-width="5.28" stroke="#fff" stroke-miterlimit="10"/>
  <path class="cls-4" d="M135.41 125a4.56 4.56 0 011.25 1.36 4 4 0 01.53 1.58 4 4 0 01-.16 1.65 5.22 5.22 0 01-.79 1.56 5.36 5.36 0 01-1.28 1.24 4.05 4.05 0 01-1.53.62 4.24 4.24 0 01-1.66-.06 4.71 4.71 0 01-1.67-.82l-11-8.18a4.68 4.68 0 01-1.25-1.36 3.86 3.86 0 01-.53-1.56 4.18 4.18 0 01.15-1.64 5 5 0 01.8-1.59 5.06 5.06 0 011.28-1.21 4.43 4.43 0 011.53-.63 4.05 4.05 0 011.66 0 4.86 4.86 0 011.67.81zm-3.83 5.1a1.81 1.81 0 001.46.42 2.27 2.27 0 001.67-2.24 1.81 1.81 0 00-.83-1.28l-11-8.15a1.77 1.77 0 00-1.46-.42 2 2 0 00-1.22.83 2 2 0 00-.45 1.41 1.83 1.83 0 00.82 1.28zM129 106a4.15 4.15 0 013.09-1.35 5.26 5.26 0 013.47 1.84l2.22 2.24a5.26 5.26 0 011.82 3.48 4.15 4.15 0 01-1.38 3.08l-1.37 1.37 6 6-1.8 1.79-15.25-15.29zm6.12 8.91l1.23-1.22q1.41-1.41-.24-3.07l-2.45-2.47q-1.65-1.66-3.06-.27l-1.24 1.23zM138.78 97.47l13.35 17-2 1.57L136.78 99zM146.43 92.15L157.32 103l-7.75-12.74 1.89-1.15 11.24 18.47-1.93 1.18-11.84-11.44 8.27 13.59-1.88 1.15-11.25-18.47zM159.68 85.11l9 19.67-2.31 1.06-9-19.68zM164.4 79.63a4.49 4.49 0 01.64-1.84 2.66 2.66 0 011.46-1 3 3 0 011.14-.15 9.51 9.51 0 011 .17l.92.18a1.82 1.82 0 00.94-.08 1.87 1.87 0 00.85-.56 2.51 2.51 0 00.45-1.35l1.22.54a4.67 4.67 0 01-.66 1.88 2.48 2.48 0 01-1.35 1 2.75 2.75 0 01-1.1.14c-.33 0-.66-.1-1-.17s-.65-.13-1-.17a2.23 2.23 0 00-1 .11 1.85 1.85 0 00-.85.55 2.28 2.28 0 00-.48 1.26zm15.09 17.1a4.68 4.68 0 01.23 1.85 4 4 0 01-.5 1.59 4.05 4.05 0 01-1.09 1.25 5.23 5.23 0 01-1.56.8 5.14 5.14 0 01-1.76.25 3.77 3.77 0 01-1.6-.38 4.12 4.12 0 01-1.31-1 4.63 4.63 0 01-.88-1.63l-4.18-13.08a4.43 4.43 0 01-.22-1.84 3.75 3.75 0 01.48-1.54 4.11 4.11 0 011.08-1.25 5 5 0 011.58-.82 5 5 0 011.73-.23 4.18 4.18 0 011.62.38 3.86 3.86 0 011.32 1 4.47 4.47 0 01.88 1.63zm-6.09 1.92a1.81 1.81 0 00.95 1.19 2 2 0 001.48 0A2.05 2.05 0 00177 99a1.83 1.83 0 00.08-1.52l-4.16-13a1.81 1.81 0 00-1-1.19 2 2 0 00-1.47 0 2 2 0 00-1.19.89 1.83 1.83 0 00-.08 1.52zM187.83 77.17l.41 2.42-4.54.77 1.13 6.7 3.21-.54.41 2.42-3.21.54 1.24 7.35 4.54-.76.41 2.42-7.05 1.19-3.6-21.32zM198.17 76a4 4 0 013.1 1.06 4.31 4.31 0 011.21 3v.78l-2.35.07v-.58a2.14 2.14 0 00-.54-1.47 1.75 1.75 0 00-1.4-.51 1.72 1.72 0 00-1.48.72 2.75 2.75 0 00-.43 1.66 4 4 0 00.34 1.5 7.58 7.58 0 00.89 1.45c.25.34.56.73.93 1.18s.76.92 1.15 1.41.78 1 1.14 1.46.68.91 1 1.31a8.48 8.48 0 011 1.9 7.17 7.17 0 01.36 2.09 6.19 6.19 0 01-.93 3.83 3.86 3.86 0 01-3.24 1.5 5.34 5.34 0 01-1.93-.27 4.24 4.24 0 01-1.45-.85 4 4 0 01-.94-1.31 4.33 4.33 0 01-.37-1.65v-1.16l2.37.54v.52a1.91 1.91 0 00.58 1.34 2 2 0 001.52.53 1.88 1.88 0 001.54-.71 3 3 0 00.45-1.9 5.49 5.49 0 00-.28-1.51 7.35 7.35 0 00-.9-1.68c-.21-.31-.48-.65-.79-1l-1-1.18c-.35-.42-.69-.83-1-1.26s-.63-.83-.9-1.22a11 11 0 01-1.37-2.6 7.3 7.3 0 01-.42-2.18 4.77 4.77 0 01.97-3.44 4.27 4.27 0 013.17-1.37zM198.29 260.24l2.81 16 2.16-16.12 2.46-.06-3.26 21.7-2.51.06-4.14-21.54zM215.44 258.62l.38 2.43-4.55.72 1.06 6.71 3.22-.51.38 2.43-3.22.51 1.17 7.36 4.55-.72.39 2.43-7.07 1.12-3.38-21.36zM222.31 256.79a3.93 3.93 0 015.36 2.8l.91 2.87a4.33 4.33 0 01.23 2 2.33 2.33 0 01-.76 1.34 2.5 2.5 0 011.5.66 4.1 4.1 0 011 1.84l2.43 7.75-2.4.75-2.41-7.8a2.12 2.12 0 00-.81-1.27 2.17 2.17 0 00-1.62.06l-1.79.57 3 9.61-2.37.75-6.48-20.63zm1 9.5l1.64-.51a2.13 2.13 0 001.35-.9 2.18 2.18 0 000-1.57l-.85-2.68c-.43-1.39-1.28-1.89-2.55-1.49l-1.63.51zM233.71 252.41a4.17 4.17 0 013.36-.24 5.24 5.24 0 012.65 2.9l5 10.57a5.27 5.27 0 01.55 3.9 4.15 4.15 0 01-2.33 2.44l-4 1.9-9.22-19.56zm6.42 18.17l1.57-.75c1.2-.56 1.47-1.55.8-3L237.38 256c-.67-1.41-1.6-1.84-2.8-1.27l-1.57.74zM244.47 246.28l15 16-2.06 1.34-2.12-2.34-3.38 2.21 1.32 2.87-2.05 1.35-8.81-20.09zm6.53 15.29l2.81-1.84-7.36-8.12zM253 239.67a4.16 4.16 0 013.16-1.18 5.29 5.29 0 013.36 2l7.75 8.74a5.29 5.29 0 011.62 3.58 4.15 4.15 0 01-1.55 3l-3.35 3-14.34-16.19zm11.26 15.63l1.3-1.15c1-.88 1-1.91-.06-3.08l-8-9c-1-1.17-2.05-1.32-3.05-.44l-1.3 1.15zM263.1 229l1.87 1.61-3 3.49 5.14 4.44 2.13-2.47 1.86 1.6-2.1 2.47 5.65 4.87 3-3.5 1.86 1.61-4.67 5.42-16.38-14.12zM266.45 224.28l17.73 12.38-1.45 2.08L265 226.36zM270.59 217.43a4.3 4.3 0 012.49-2.22 4.25 4.25 0 013.32.5l2.64 1.43a4.47 4.47 0 011.59 1.3 2.29 2.29 0 01.38 1.5 2.55 2.55 0 011.54-.58 4.08 4.08 0 012 .6l7.14 3.88-1.2 2.2-7.21-3.91a2.11 2.11 0 00-1.46-.34c-.38.1-.76.49-1.12 1.17l-.9 1.65 8.86 4.81-1.19 2.18-19-10.31zm7.32 6.14l.82-1.51a2.1 2.1 0 00.34-1.59 2.16 2.16 0 00-1.11-1.09l-2.48-1.38c-1.28-.7-2.23-.46-2.87.7l-.81 1.51zM275.84 205.6l21.59 3.94-.84 2.3-3.1-.61-1.4 3.79 2.77 1.52-.85 2.3L275 208zm14.37 8.4l1.17-3.16-10.76-2.13zM278.22 195.7A4 4 0 01280 193a4.25 4.25 0 013.23-.44l.76.17-.5 2.29-.56-.12a2.16 2.16 0 00-1.57.17 1.79 1.79 0 00-.83 1.23 1.73 1.73 0 00.35 1.62 2.76 2.76 0 001.5.82 4 4 0 001.53 0 7.72 7.72 0 001.63-.51c.39-.16.85-.37 1.37-.62l1.65-.77c.58-.27 1.14-.52 1.69-.75s1.05-.45 1.5-.61a8.73 8.73 0 012.09-.5 7.17 7.17 0 012.11.16 6.17 6.17 0 013.49 1.83 3.87 3.87 0 01.67 3.51 5.23 5.23 0 01-.73 1.8 4.1 4.1 0 01-1.18 1.2 4 4 0 01-1.5.6 4.33 4.33 0 01-1.68 0l-1.14-.25 1.09-2.16.51.11a1.92 1.92 0 001.44-.24 2 2 0 00.89-1.35 1.85 1.85 0 00-.32-1.67 3.06 3.06 0 00-1.73-.89 4.84 4.84 0 00-1.53-.09 6.47 6.47 0 00-1.85.46 12.06 12.06 0 00-1.19.52l-1.39.67c-.48.24-1 .47-1.46.69s-1 .42-1.42.58a10.68 10.68 0 01-2.84.7 7.65 7.65 0 01-2.22-.12 4.75 4.75 0 01-3.08-1.9 4.2 4.2 0 01-.56-3.44z"/>
</svg>
