<?xml version="1.0" encoding="utf-8"?>
<!-- Generator: Adobe Illustrator 27.7.0, SVG Export Plug-In . SVG Version: 6.00 Build 0)  -->
<svg version="1.1" id="Layer_1" xmlns="http://www.w3.org/2000/svg" xmlns:xlink="http://www.w3.org/1999/xlink" x="0px" y="0px"
	 viewBox="0 0 1642.4 412" style="enable-background:new 0 0 1642.4 412;" xml:space="preserve">
<style type="text/css">
	.Drop_x0020_Shadow{fill:none;}
	.Round_x0020_Corners_x0020_2_x0020_pt{fill:#FFFFFF;stroke:#231F20;stroke-miterlimit:10;}
	.Live_x0020_Reflect_x0020_X{fill:none;}
	.Bevel_x0020_Soft{fill:url(#SVGID_1_);}
	.Dusk{fill:#FFFFFF;}
	.Foliage_GS{fill:#FFDD00;}
	.Pompadour_GS{fill-rule:evenodd;clip-rule:evenodd;fill:#44ADE2;}
	.st0{fill:#FF4B00;}
</style>
<linearGradient id="SVGID_1_" gradientUnits="userSpaceOnUse" x1="289.7652" y1="-945.6901" x2="290.4723" y2="-944.983">
	<stop  offset="0" style="stop-color:#DEDFE3"/>
	<stop  offset="0.1783" style="stop-color:#DADBDF"/>
	<stop  offset="0.3611" style="stop-color:#CECFD3"/>
	<stop  offset="0.546" style="stop-color:#B9BCBF"/>
	<stop  offset="0.7324" style="stop-color:#9CA0A2"/>
	<stop  offset="0.9181" style="stop-color:#787D7E"/>
	<stop  offset="1" style="stop-color:#656B6C"/>
</linearGradient>
<g>
	<path d="M669.8,256.1c0,16.6-16.7,30-37.3,30c-20.6,0-37.3-13.4-37.3-30V103.9h-73.5V259c0,49.2,49.6,89.1,110.8,89.1
		c61.2,0,110.8-39.9,110.8-89.1V103.9h-73.5V256.1z M1566.4,342.7h76V103.9h-76V342.7z M1442.2,96.9c-32.6,0-55.9,14.4-72.2,35.8
		l-9.6-28.8h-10.6h-54.1V412h76v-94h0.9c14.9,20.1,36.8,32.2,67.6,32.2c62.5,0,104-49.4,104-126.9
		C1544.3,151.5,1505.6,96.9,1442.2,96.9z M1420.7,291.4c-32.6,0-51.3-26.6-51.3-65.3s16.8-68.1,49.9-68.1c32.6,0,48,27.1,48,68.1
		C1467.4,266.7,1449.6,291.4,1420.7,291.4z M962.8,117c-17.3-13.1-41.5-19.6-77.4-19.6c-72.3,0-106.3,37.8-108.2,82.1h70
		c2.3-20.1,14.5-30.8,38.7-30.8c22.9,0,32.6,10.3,32.6,25.7c0,16.3-15.9,21-60.6,26.6c-49.4,6.5-91.4,22.4-91.4,75.1
		c0,47.1,34,72.8,81.6,72.8c35.9,0,56.9-12.6,70.9-32.6l8.9,26.6h9.6h55.7v-37.3v-82.3v-38C993.1,155.2,983.3,131.9,962.8,117z
		 M920.3,257.4c0,25.7-19.6,42.9-48,42.9c-18.7,0-32.6-7.5-32.6-26.6c0-18.2,12.1-25.7,41.5-32.2c15.4-3.7,29.4-7.5,39.2-12.6V257.4
		z M1566.4,0v69.3h76V0H1566.4z M1171.5,96.9c-32.6,0-55.9,14.4-72.2,35.8l-9.6-28.8h-10.6H1025V412h76v-94h0.9
		c14.9,20.1,36.8,32.2,67.6,32.2c62.5,0,104-49.4,104-126.9C1273.6,151.5,1234.9,96.9,1171.5,96.9z M1150.1,291.4
		c-32.6,0-51.3-26.6-51.3-65.3s16.8-68.1,49.9-68.1c32.6,0,48,27.1,48,68.1C1196.7,266.7,1179,291.4,1150.1,291.4z M146.6,342.7
		h114.2V114.2H146.6V342.7z M293.3,196.2h114.2V0H293.3V196.2z M0,342.7h114.2V228.5H0V342.7z"/>
	<rect x="293.3" y="228.5" class="st0" width="114.2" height="114.2"/>
</g>
</svg>
