<svg xmlns="http://www.w3.org/2000/svg" width="34.168" height="11.039" viewBox="0 0 34.168 11.039">
  <g id="_0" data-name="0" transform="translate(-11.915 -14.479)">
    <g id="Agrupar_44" data-name="Agrupar 44">
      <path id="Caminho_176" data-name="Caminho 176" d="M42.747,21.56c-.277-1.325-.548-2.627-.82-3.929l-.039,0c-.473,1.305-.946,2.61-1.426,3.932ZM36.2,25.336c.164-.4.326-.784.489-1.173q1.808-4.318,3.616-8.638a1.266,1.266,0,0,1,1.267-.846q1.054,0,2.108,0c.134,0,.194.027.225.175q1.066,5.142,2.146,10.28c.014.067.022.136.034.213H43.54c-.1-.461-.2-.915-.282-1.374-.031-.172-.1-.219-.271-.218-1.044.009-2.089.007-3.133,0a.226.226,0,0,0-.257.181c-.145.431-.3.858-.464,1.283a.23.23,0,0,1-.165.129c-.9.008-1.8,0-2.7,0A.356.356,0,0,1,36.2,25.336Z" fill="#152884"/>
      <path id="Caminho_177" data-name="Caminho 177" d="M36.836,14.964c-.16.748-.319,1.487-.478,2.232-.3-.1-.591-.211-.887-.293a4.31,4.31,0,0,0-1.989-.129,1.862,1.862,0,0,0-.69.289.663.663,0,0,0-.026,1.146,12.358,12.358,0,0,0,1.061.658c.443.268.911.5,1.327.806A2.688,2.688,0,0,1,36.2,22.79a3.477,3.477,0,0,1-2.286,2.331,7.062,7.062,0,0,1-3.158.362,7.957,7.957,0,0,1-1.984-.4c-.106-.037-.21-.08-.329-.126q.25-1.176.492-2.306c.457.161.9.345,1.349.469a4.262,4.262,0,0,0,2.065.1,2.116,2.116,0,0,0,.766-.345.751.751,0,0,0,.058-1.2,7.256,7.256,0,0,0-.972-.651c-.5-.308-1.036-.563-1.5-.912a2.715,2.715,0,0,1-.472-3.979,4.1,4.1,0,0,1,2.365-1.447,7.082,7.082,0,0,1,4.088.219C36.732,14.92,36.777,14.94,36.836,14.964Z" fill="#152884"/>
      <path id="Caminho_178" data-name="Caminho 178" d="M28.825,14.7c-.073.35-.143.694-.217,1.037q-1,4.678-2,9.358c-.043.2-.112.272-.326.267-.753-.015-1.506-.006-2.259-.006h-.234c.071-.334.137-.647.2-.959q1.023-4.781,2.045-9.562c.021-.1.043-.156.163-.156.842.005,1.683,0,2.525,0C28.753,14.681,28.777,14.688,28.825,14.7Z" fill="#152884"/>
      <path id="Caminho_179" data-name="Caminho 179" d="M11.974,14.679h.2q2.193,0,4.386,0a1.286,1.286,0,0,1,1.388,1.15l1.134,6a.691.691,0,0,0,.027.076c.041-.09.072-.151.1-.215q1.35-3.41,2.694-6.821a.256.256,0,0,1,.288-.192c.823.007,1.646,0,2.468,0h.215c-.041.107-.072.194-.108.279q-2.142,5.113-4.283,10.227a.226.226,0,0,1-.246.171q-1.292-.01-2.582,0c-.135,0-.181-.042-.214-.17-.724-2.814-1.456-5.626-2.178-8.441a1.292,1.292,0,0,0-.735-.9,12.434,12.434,0,0,0-2.477-.822c-.042-.01-.083-.023-.138-.038.01-.054.018-.1.027-.15S11.961,14.745,11.974,14.679Z" fill="#152884"/>
    </g>
  </g>
</svg>
